<svg width="66" height="66" viewBox="0 0 66 66" fill="none" xmlns="http://www.w3.org/2000/svg">
<path fill-rule="evenodd" clip-rule="evenodd" d="M7.50636 39.0162C5.28434 35.3128 5.28434 30.6862 7.50636 26.9829C8.30402 25.6534 9.62548 24.7222 11.1457 24.4181L15.7543 23.4964L21.4876 16.6165C23.0507 14.7407 24.3179 13.2199 25.3814 12.2468C26.3899 11.3239 27.7283 10.4075 29.2669 10.9646C30.8055 11.5216 31.247 13.0824 31.431 14.437C31.625 15.8654 31.6249 17.845 31.6249 20.2867L31.6249 45.7124C31.6249 48.1541 31.625 50.1337 31.431 51.562C31.247 52.9167 30.8055 54.4774 29.2669 55.0345C27.7283 55.5916 26.3899 54.6752 25.3814 53.7523C24.3179 52.7792 23.0507 51.2584 21.4876 49.3826L15.7543 42.5027L11.1457 41.5809C9.62548 41.2769 8.30402 40.3456 7.50636 39.0162ZM9.86447 28.3977C8.16497 31.2302 8.16497 34.7688 9.86447 37.6013C10.2635 38.2664 10.9246 38.7322 11.6851 38.8843L16.3409 39.8155C16.9262 39.9326 17.4539 40.2465 17.836 40.7051L23.526 47.5331C25.1808 49.5188 26.3293 50.8921 27.2379 51.7235C27.6883 52.1357 27.9917 52.3301 28.1847 52.4106C28.2712 52.4467 28.3133 52.4503 28.321 52.4508C28.3216 52.4508 28.3207 52.4507 28.321 52.4508C28.3225 52.4509 28.3242 52.4511 28.3307 52.4488C28.3373 52.4464 28.3376 52.4461 28.3385 52.445C28.3388 52.4448 28.3381 52.4454 28.3385 52.445C28.3442 52.4397 28.3751 52.4091 28.4185 52.326C28.5152 52.1405 28.6238 51.7969 28.706 51.192C28.8717 49.9716 28.8749 48.1814 28.8749 45.5965L28.8749 20.4026C28.8749 17.8177 28.8717 16.0275 28.706 14.8071C28.6238 14.2021 28.5152 13.8585 28.4185 13.6731C28.3751 13.59 28.3451 13.5603 28.3394 13.555C28.3381 13.5537 28.3382 13.5534 28.3363 13.5525C28.3353 13.552 28.3336 13.5514 28.3307 13.5503C28.3226 13.5474 28.3239 13.5482 28.321 13.5483C28.3133 13.5488 28.2712 13.5524 28.1847 13.5885C27.9917 13.669 27.6883 13.8634 27.2379 14.2756C26.3293 15.107 25.1808 16.4803 23.526 18.466L17.836 25.294C17.4539 25.7526 16.9262 26.0665 16.3409 26.1836L11.6851 27.1147C10.9245 27.2668 10.2635 27.7327 9.86447 28.3977Z" fill="#4D55B2"/>
<path fill-rule="evenodd" clip-rule="evenodd" d="M41.7504 22.3051C42.2874 21.7681 43.158 21.7681 43.6949 22.3051C46.5168 25.127 48.1091 28.9498 48.1248 32.9405C48.1405 36.9312 46.5784 40.7664 43.7789 43.6105C43.2461 44.1516 42.3756 44.1585 41.8344 43.6258C41.2932 43.0931 41.2863 42.2225 41.8191 41.6813C44.1096 39.3544 45.3877 36.2165 45.3748 32.9513C45.362 29.6862 44.0592 26.5584 41.7504 24.2496C41.2134 23.7126 41.2134 22.842 41.7504 22.3051Z" fill="#4D55B2"/>
<path fill-rule="evenodd" clip-rule="evenodd" d="M53.0844 16.4711C53.6213 15.9341 54.4919 15.9341 55.0289 16.4711C59.39 20.8322 61.8508 26.7401 61.8751 32.9076C61.8994 39.0751 59.4852 45.0023 55.1586 49.3976C54.6259 49.9388 53.7553 49.9456 53.2141 49.4129C52.673 48.8802 52.6661 48.0096 53.1988 47.4684C57.0164 43.5902 59.1466 38.3604 59.1251 32.9185C59.1037 27.4766 56.9324 22.2637 53.0844 18.4156C52.5474 17.8787 52.5474 17.0081 53.0844 16.4711Z" fill="#4D55B2"/>
</svg>
