<svg width="66" height="66" viewBox="0 0 66 66" fill="none" xmlns="http://www.w3.org/2000/svg">
<path fill-rule="evenodd" clip-rule="evenodd" d="M23.375 19.25C23.375 18.4906 23.9906 17.875 24.75 17.875L35.75 17.875C36.5094 17.875 37.125 18.4906 37.125 19.25C37.125 20.0094 36.5094 20.625 35.75 20.625L24.75 20.625C23.9906 20.625 23.375 20.0094 23.375 19.25Z" fill="#4D55B2"/>
<path fill-rule="evenodd" clip-rule="evenodd" d="M23.375 41.25C23.375 40.4906 23.9906 39.875 24.75 39.875L33 39.875C33.7594 39.875 34.375 40.4906 34.375 41.25C34.375 42.0094 33.7594 42.625 33 42.625L24.75 42.625C23.9906 42.625 23.375 42.0094 23.375 41.25Z" fill="#4D55B2"/>
<path fill-rule="evenodd" clip-rule="evenodd" d="M23.375 30.25C23.375 29.4906 23.9906 28.875 24.75 28.875L41.25 28.875C42.0094 28.875 42.625 29.4906 42.625 30.25C42.625 31.0094 42.0094 31.625 41.25 31.625L24.75 31.625C23.9906 31.625 23.375 31.0094 23.375 30.25Z" fill="#4D55B2"/>
<path fill-rule="evenodd" clip-rule="evenodd" d="M30.1456 59.125L33 59.125C33.7594 59.125 34.375 58.5094 34.375 57.75C34.375 56.9906 33.7594 56.375 33 56.375H30.25C26.322 56.375 23.5144 56.3721 21.3807 56.0852C19.2866 55.8037 18.0488 55.2715 17.1386 54.3614C16.2285 53.4512 15.6963 52.2134 15.4148 50.1193C15.1279 47.9856 15.125 45.178 15.125 41.25V24.75C15.125 20.822 15.1279 18.0144 15.4148 15.8807C15.6963 13.7866 16.2285 12.5488 17.1386 11.6386C18.0488 10.7285 19.2866 10.1963 21.3807 9.91479C23.5144 9.62792 26.322 9.625 30.25 9.625H35.75C39.678 9.625 42.4856 9.62792 44.6193 9.91479C46.7134 10.1963 47.9512 10.7285 48.8614 11.6386C49.7715 12.5488 50.3037 13.7866 50.5852 15.8807C50.8721 18.0144 50.875 20.822 50.875 24.75V30.25C50.875 31.0094 51.4906 31.625 52.25 31.625C53.0094 31.625 53.625 31.0094 53.625 30.25V24.6456C53.625 20.8451 53.625 17.8524 53.3107 15.5143C52.9881 13.1152 52.3121 11.2003 50.8059 9.6941C49.2997 8.18785 47.3848 7.51185 44.9857 7.18931C42.6476 6.87495 39.655 6.87497 35.8545 6.875H30.1455C26.345 6.87497 23.3524 6.87495 21.0143 7.18931C18.6152 7.51185 16.7003 8.18785 15.1941 9.6941C13.6879 11.2003 13.0119 13.1152 12.6893 15.5143C12.375 17.8524 12.375 20.845 12.375 24.6456V41.3544C12.375 45.155 12.375 48.1476 12.6893 50.4857C13.0119 52.8848 13.6879 54.7997 15.1941 56.3059C16.7003 57.8121 18.6152 58.4881 21.0143 58.8107C23.3524 59.125 26.345 59.125 30.1456 59.125Z" fill="#4D55B2"/>
<path fill-rule="evenodd" clip-rule="evenodd" d="M48.125 42.625C45.0874 42.625 42.625 45.0874 42.625 48.125C42.625 51.1626 45.0874 53.625 48.125 53.625C51.1626 53.625 53.625 51.1626 53.625 48.125C53.625 45.0874 51.1626 42.625 48.125 42.625ZM39.875 48.125C39.875 43.5687 43.5687 39.875 48.125 39.875C52.6813 39.875 56.375 43.5687 56.375 48.125C56.375 52.6813 52.6813 56.375 48.125 56.375C43.5687 56.375 39.875 52.6813 39.875 48.125Z" fill="#4D55B2"/>
<path fill-rule="evenodd" clip-rule="evenodd" d="M52.6527 52.6527C53.1897 52.1158 54.0603 52.1158 54.5973 52.6527L58.7223 56.7777C59.2592 57.3147 59.2592 58.1853 58.7223 58.7223C58.1853 59.2592 57.3147 59.2592 56.7777 58.7223L52.6527 54.5973C52.1158 54.0603 52.1158 53.1897 52.6527 52.6527Z" fill="#4D55B2"/>
</svg>
