<svg width="66" height="66" viewBox="0 0 66 66" fill="none" xmlns="http://www.w3.org/2000/svg">
<path fill-rule="evenodd" clip-rule="evenodd" d="M19.1494 6.875H46.8506C49.3579 6.87496 51.3788 6.87493 52.9682 7.08863C54.6184 7.31049 56.0078 7.78513 57.1114 8.88864C58.2149 9.99216 58.6895 11.3816 58.9114 13.0318C59.1251 14.6212 59.125 16.6421 59.125 19.1494V46.8507C59.125 49.3579 59.1251 51.3788 58.9114 52.9682C58.6895 54.6184 58.2149 56.0078 57.1114 57.1114C56.0078 58.2149 54.6184 58.6895 52.9682 58.9114C51.3788 59.1251 49.3579 59.125 46.8507 59.125H19.1494C16.6421 59.125 14.6212 59.1251 13.0318 58.9114C11.3816 58.6895 9.99216 58.2149 8.88864 57.1114C7.78513 56.0078 7.31049 54.6184 7.08863 52.9682C6.87493 51.3788 6.87496 49.3579 6.875 46.8506V19.1494C6.87496 16.6422 6.87493 14.6212 7.08863 13.0318C7.31049 11.3816 7.78513 9.99216 8.88864 8.88864C9.99216 7.78513 11.3816 7.31049 13.0318 7.08863C14.6212 6.87493 16.6422 6.87496 19.1494 6.875ZM13.3982 9.8141C12.053 9.99497 11.3406 10.3258 10.8332 10.8332C10.3258 11.3406 9.99497 12.053 9.8141 13.3982C9.62792 14.783 9.625 16.6184 9.625 19.25V46.75C9.625 49.3816 9.62792 51.217 9.8141 52.6018C9.99497 53.947 10.3258 54.6594 10.8332 55.1668C11.3406 55.6742 12.053 56.005 13.3982 56.1859C14.783 56.3721 16.6184 56.375 19.25 56.375H46.75C49.3816 56.375 51.217 56.3721 52.6018 56.1859C53.947 56.005 54.6594 55.6742 55.1668 55.1668C55.6742 54.6594 56.005 53.947 56.1859 52.6018C56.3721 51.217 56.375 49.3816 56.375 46.75V19.25C56.375 16.6184 56.3721 14.783 56.1859 13.3982C56.005 12.053 55.6742 11.3406 55.1668 10.8332C54.6594 10.3258 53.947 9.99497 52.6018 9.8141C51.217 9.62792 49.3816 9.625 46.75 9.625H19.25C16.6184 9.625 14.783 9.62792 13.3982 9.8141Z" fill="#4D55B2"/>
<path fill-rule="evenodd" clip-rule="evenodd" d="M29.712 20.6678C26.5335 20.6678 23.9568 23.2444 23.9568 26.4229C23.9568 29.6014 26.5335 32.1781 29.712 32.1781C32.8905 32.1781 35.4671 29.6014 35.4671 26.4229C35.4671 23.2444 32.8905 20.6678 29.712 20.6678ZM22.3125 26.4229C22.3125 22.3363 25.6254 19.0234 29.712 19.0234C33.7986 19.0234 37.1115 22.3363 37.1115 26.4229C37.1115 30.5095 33.7986 33.8224 29.712 33.8224C25.6254 33.8224 22.3125 30.5095 22.3125 26.4229Z" fill="#4D55B2"/>
<path fill-rule="evenodd" clip-rule="evenodd" d="M23.205 40.9645C25.0716 39.5322 27.3587 38.7559 29.7115 38.7559C32.0644 38.7559 34.3515 39.5322 36.2181 40.9645C38.0847 42.3968 39.4265 44.4051 40.0355 46.6777C40.153 47.1163 39.8927 47.5671 39.4541 47.6847C39.0155 47.8022 38.5647 47.5419 38.4472 47.1033C37.9319 45.1803 36.7965 43.481 35.2171 42.2691C33.6376 41.0571 31.7024 40.4002 29.7115 40.4002C27.7207 40.4002 25.7855 41.0571 24.206 42.2691C22.6266 43.481 21.4912 45.1803 20.9759 47.1033C20.8584 47.5419 20.4075 47.8022 19.969 47.6846C19.5304 47.5671 19.2701 47.1163 19.3876 46.6777C19.9966 44.405 21.3384 42.3968 23.205 40.9645Z" fill="#4D55B2"/>
<path fill-rule="evenodd" clip-rule="evenodd" d="M44.5106 28.8896C44.9647 28.8896 45.3328 29.2577 45.3328 29.7118L45.3328 39.5778C45.3328 40.0319 44.9647 40.4 44.5106 40.4C44.0566 40.4 43.6885 40.0319 43.6885 39.5778L43.6885 29.7118C43.6885 29.2577 44.0566 28.8896 44.5106 28.8896Z" fill="#4D55B2"/>
<path fill-rule="evenodd" clip-rule="evenodd" d="M50.2661 34.6444C50.2661 35.0985 49.898 35.4666 49.4439 35.4666L39.578 35.4666C39.1239 35.4666 38.7558 35.0985 38.7558 34.6444C38.7558 34.1904 39.1239 33.8223 39.578 33.8223L49.4439 33.8223C49.898 33.8223 50.2661 34.1904 50.2661 34.6444Z" fill="#4D55B2"/>
</svg>
