<svg width="66" height="67" viewBox="0 0 66 67" fill="none" xmlns="http://www.w3.org/2000/svg">
<path fill-rule="evenodd" clip-rule="evenodd" d="M24.9182 14.3333C24.6908 14.2642 24.4179 14.2502 23.299 14.2502H16.225C15.0472 14.2502 14.2466 14.2513 13.6277 14.3018C13.0249 14.3511 12.7166 14.4403 12.5015 14.5499C11.9841 14.8136 11.5634 15.2343 11.2997 15.7517C11.1902 15.9668 11.1009 16.275 11.0516 16.8779C11.0011 17.4967 11 18.2974 11 19.4752V44.7763C11 45.9541 11.0011 46.7547 11.0516 47.3736C11.1009 47.9764 11.1902 48.2847 11.2997 48.4998C11.5634 49.0172 11.9841 49.4379 12.5015 49.7016C12.7166 49.8111 13.0249 49.9004 13.6277 49.9496C14.2466 50.0002 15.0472 50.0013 16.225 50.0013H39.875C40.6344 50.0013 41.25 50.6169 41.25 51.3763C41.25 52.1357 40.6344 52.7513 39.875 52.7513H16.1682C15.0614 52.7513 14.1479 52.7513 13.4037 52.6905C12.6309 52.6274 11.9204 52.4918 11.2531 52.1518C10.2182 51.6245 9.37677 50.7831 8.84947 49.7482C8.50944 49.0809 8.37391 48.3704 8.31077 47.5975C8.24997 46.8534 8.24998 45.9399 8.25 44.8331V19.4184C8.24998 18.3116 8.24997 17.3981 8.31077 16.6539C8.37391 15.881 8.50944 15.1706 8.84947 14.5032C9.37677 13.4683 10.2182 12.627 11.2531 12.0996C11.9204 11.7596 12.6309 11.6241 13.4037 11.561C14.1479 11.5002 15.0614 11.5002 16.1682 11.5002L23.299 11.5002C23.3541 11.5002 23.4085 11.5001 23.4623 11.5001C24.3348 11.4993 25.0482 11.4987 25.7173 11.7019C26.3054 11.8806 26.8525 12.1734 27.3274 12.5637C27.8676 13.0077 28.2628 13.6017 28.746 14.3281C28.7759 14.3729 28.806 14.4182 28.8365 14.464L31.2017 18.0122C31.8222 18.9432 31.9853 19.1625 32.1689 19.3134C32.3644 19.4741 32.5897 19.5947 32.8318 19.6682C33.0592 19.7373 33.3321 19.7513 34.451 19.7513H45.3761C45.44 19.7513 45.503 19.7513 45.5651 19.7512C46.6579 19.7506 47.4694 19.7502 48.1724 19.9384C50.0713 20.4468 51.5545 21.93 52.0629 23.8289C52.2511 24.5319 52.2507 25.3434 52.2501 26.4362C52.25 26.4983 52.25 26.5612 52.25 26.6252H49.5C49.5 25.2591 49.4882 24.8455 49.4064 24.5401C49.1522 23.5906 48.4106 22.849 47.4612 22.5948C47.1558 22.5131 46.7422 22.5013 45.3761 22.5013H34.451C34.3959 22.5013 34.3415 22.5013 34.2877 22.5014C33.4152 22.5021 32.7018 22.5028 32.0327 22.2995C31.4446 22.1209 30.8975 21.8281 30.4226 21.4378C29.8824 20.9937 29.4872 20.3998 29.004 19.6734C28.9741 19.6286 28.944 19.5833 28.9135 19.5375L26.5483 15.9893C25.9278 15.0583 25.7647 14.839 25.5811 14.6881C25.3856 14.5274 25.1603 14.4068 24.9182 14.3333ZM24.75 37.6252C24.75 36.8658 25.3656 36.2502 26.125 36.2502H45.375C46.1344 36.2502 46.75 36.8658 46.75 37.6252C46.75 38.3846 46.1344 39.0002 45.375 39.0002H26.125C25.3656 39.0002 24.75 38.3846 24.75 37.6252Z" fill="#4D55B2"/>
<path fill-rule="evenodd" clip-rule="evenodd" d="M22.3875 25.2501C22.468 25.2502 22.5496 25.2503 22.6323 25.2503L50.0346 25.251C51.5241 25.251 52.7347 25.251 53.6963 25.3375C54.679 25.4259 55.5782 25.6156 56.3597 26.1141C57.544 26.8694 58.3943 28.0493 58.7364 29.4117C58.9621 30.3107 58.8577 31.2237 58.6308 32.1839C58.4087 33.1235 58.0259 34.272 57.5548 35.685L53.6838 47.2982C53.6576 47.3766 53.6319 47.4541 53.6065 47.5305C53.1427 48.9254 52.7936 49.9753 52.1211 50.7795C51.5304 51.4859 50.7718 52.0326 49.915 52.3696C48.9393 52.7533 47.8329 52.7525 46.3629 52.7514C46.2824 52.7513 46.2008 52.7512 46.1181 52.7512H18.7157C17.2262 52.7512 16.0155 52.7513 15.054 52.6648C14.0713 52.5764 13.172 52.3868 12.3905 51.8883C11.2062 51.133 10.3558 49.9531 10.0137 48.5907C9.78798 47.6917 9.8924 46.7786 10.1193 45.8184C10.3414 44.8789 10.7242 43.7303 11.1952 42.3173L15.0663 30.7034C15.0925 30.6249 15.1182 30.5475 15.1436 30.4711C15.6074 29.0761 15.9565 28.0262 16.6291 27.2219C17.2198 26.5156 17.9784 25.9688 18.8353 25.6318C19.811 25.2481 20.9174 25.249 22.3875 25.2501ZM22.6322 28.0003C20.8043 28.0002 20.2682 28.0233 19.8417 28.191C19.4133 28.3595 19.034 28.6329 18.7387 28.9861C18.4447 29.3376 18.2533 29.8388 17.6752 31.573L13.8251 43.124C13.3281 44.615 12.9858 45.6461 12.7956 46.4509C12.607 47.249 12.6136 47.6528 12.6809 47.921C12.852 48.6022 13.2772 49.1921 13.8693 49.5698C14.1025 49.7185 14.4835 49.8524 15.3002 49.9259C16.1239 49.9999 17.2103 50.0012 18.782 50.0012H46.1181C47.946 50.0012 48.482 49.9781 48.9085 49.8104C49.3369 49.6419 49.7162 49.3685 50.0115 49.0154C50.3055 48.6639 50.4969 48.1626 51.0749 46.4285L54.925 34.8783C55.422 33.3873 55.7643 32.3563 55.9545 31.5514C56.1431 30.7534 56.1365 30.3496 56.0692 30.0814C55.8982 29.4002 55.473 28.8103 54.8808 28.4326C54.6477 28.2838 54.2667 28.1499 53.4499 28.0765C52.6263 28.0024 51.5399 28.001 49.9683 28.001L22.6322 28.0003Z" fill="#4D55B2"/>
</svg>
