<svg width="66" height="66" viewBox="0 0 66 66" fill="none" xmlns="http://www.w3.org/2000/svg">
<path fill-rule="evenodd" clip-rule="evenodd" d="M61.3711 15.4358C61.9589 15.9167 62.0455 16.783 61.5646 17.3707L38.537 45.5156C37.1056 47.2651 34.5327 47.5367 32.7676 46.1246L21.1415 36.8237C20.5485 36.3493 20.4524 35.4841 20.9268 34.8911C21.4011 34.2981 22.2664 34.202 22.8594 34.6763L34.4855 43.9772C35.0739 44.4479 35.9315 44.3574 36.4086 43.7742L59.4363 15.6293C59.9171 15.0416 60.7834 14.955 61.3711 15.4358Z" fill="#4D55B2"/>
<path fill-rule="evenodd" clip-rule="evenodd" d="M29.7441 32.8045L42.3571 17.3887C42.8385 16.8003 42.7518 15.9332 42.1634 15.4518C41.5751 14.9704 40.7079 15.0571 40.2266 15.6455L27.6293 31.0421L29.7441 32.8045ZM21.0279 43.4577L18.913 41.6953L17.1224 43.8839C16.6553 44.4547 15.8213 44.556 15.2313 44.1134L6.33123 37.4384C5.7231 36.9823 4.86037 37.1055 4.40427 37.7137C3.94817 38.3218 4.07141 39.1845 4.67955 39.6406L13.5796 46.3157C15.3498 47.6433 17.8518 47.3396 19.253 45.6271L21.0279 43.4577Z" fill="#4D55B2"/>
</svg>
