<svg width="66" height="66" viewBox="0 0 66 66" fill="none" xmlns="http://www.w3.org/2000/svg">
<path fill-rule="evenodd" clip-rule="evenodd" d="M33.0001 18.1496C21.7611 18.1496 12.6501 27.2606 12.6501 38.4996C12.6501 49.7386 21.7611 58.8496 33.0001 58.8496C44.2391 58.8496 53.3501 49.7386 53.3501 38.4996C53.3501 27.2606 44.2391 18.1496 33.0001 18.1496ZM9.3501 38.4996C9.3501 25.4381 19.9386 14.8496 33.0001 14.8496C46.0616 14.8496 56.6501 25.4381 56.6501 38.4996C56.6501 51.5611 46.0616 62.1496 33.0001 62.1496C19.9386 62.1496 9.3501 51.5611 9.3501 38.4996Z" fill="#4D55B2"/>
<path fill-rule="evenodd" clip-rule="evenodd" d="M33.0001 28.5996C33.9114 28.5996 34.6501 29.3383 34.6501 30.2496L34.6501 38.4996C34.6501 39.4109 33.9114 40.1496 33.0001 40.1496C32.0888 40.1496 31.3501 39.4109 31.3501 38.4996L31.3501 30.2496C31.3501 29.3383 32.0888 28.5996 33.0001 28.5996Z" fill="#4D55B2"/>
<path fill-rule="evenodd" clip-rule="evenodd" d="M53.4168 15.3329C54.0612 15.9772 54.0612 17.022 53.4168 17.6663L49.2918 21.7913C48.6475 22.4357 47.6027 22.4357 46.9584 21.7913C46.314 21.147 46.314 20.1023 46.9584 19.4579L51.0834 15.3329C51.7278 14.6885 52.7725 14.6885 53.4168 15.3329Z" fill="#4D55B2"/>
<path fill-rule="evenodd" clip-rule="evenodd" d="M36.6593 6.91329C35.5756 6.7054 34.2918 6.59961 33.0003 6.59961C31.7088 6.59961 30.425 6.7054 29.3413 6.9133C28.7994 7.01723 28.2919 7.1496 27.849 7.31533C27.4345 7.47041 26.9499 7.70049 26.5621 8.0623C25.8958 8.68396 25.8596 9.72806 26.4813 10.3944C27.0921 11.049 28.1107 11.0954 28.7781 10.5071C28.7934 10.4987 28.8598 10.4606 29.0054 10.4061C29.2262 10.3235 29.5442 10.2345 29.963 10.1542C30.8003 9.99358 31.8704 9.89961 33.0003 9.89961C34.1302 9.89961 35.2003 9.99358 36.0376 10.1542C36.4563 10.2345 36.7744 10.3235 36.9952 10.4061C37.1408 10.4606 37.2072 10.4987 37.2225 10.5071C37.8898 11.0954 38.9085 11.049 39.5193 10.3944C40.141 9.72805 40.1048 8.68396 39.4385 8.0623C39.0507 7.70049 38.5661 7.47041 38.1516 7.31533C37.7086 7.1496 37.2012 7.01723 36.6593 6.91329Z" fill="#4D55B2"/>
</svg>
