<svg width="66" height="66" viewBox="0 0 66 66" fill="none" xmlns="http://www.w3.org/2000/svg">
<path fill-rule="evenodd" clip-rule="evenodd" d="M15.5273 48.5273L48.5273 15.5273L50.4719 17.4719L17.4719 50.4719L15.5273 48.5273Z" fill="#4D55B2"/>
<path fill-rule="evenodd" clip-rule="evenodd" d="M19.25 30.25C23.8063 30.25 27.5 26.5563 27.5 22C27.5 17.4437 23.8063 13.75 19.25 13.75C14.6937 13.75 11 17.4437 11 22C11 26.5563 14.6937 30.25 19.25 30.25ZM19.25 33C25.3251 33 30.25 28.0751 30.25 22C30.25 15.9249 25.3251 11 19.25 11C13.1749 11 8.25 15.9249 8.25 22C8.25 28.0751 13.1749 33 19.25 33Z" fill="#4D55B2"/>
<path fill-rule="evenodd" clip-rule="evenodd" d="M46.75 52.25C51.3063 52.25 55 48.5563 55 44C55 39.4437 51.3063 35.75 46.75 35.75C42.1937 35.75 38.5 39.4437 38.5 44C38.5 48.5563 42.1937 52.25 46.75 52.25ZM46.75 55C52.8251 55 57.75 50.0751 57.75 44C57.75 37.9249 52.8251 33 46.75 33C40.6749 33 35.75 37.9249 35.75 44C35.75 50.0751 40.6749 55 46.75 55Z" fill="#4D55B2"/>
</svg>
