<svg width="66" height="66" viewBox="0 0 66 66" fill="none" xmlns="http://www.w3.org/2000/svg">
<path fill-rule="evenodd" clip-rule="evenodd" d="M33 9.625C20.0903 9.625 9.625 20.0903 9.625 33C9.625 45.9097 20.0903 56.375 33 56.375C45.9097 56.375 56.375 45.9097 56.375 33C56.375 20.0903 45.9097 9.625 33 9.625ZM6.875 33C6.875 18.5716 18.5716 6.875 33 6.875C47.4284 6.875 59.125 18.5716 59.125 33C59.125 47.4284 47.4284 59.125 33 59.125C18.5716 59.125 6.875 47.4284 6.875 33Z" fill="#4D55B2"/>
<path fill-rule="evenodd" clip-rule="evenodd" d="M45.0566 25.6306L30.3427 43.2873L21.0281 33.9726L22.9726 32.0281L30.1579 39.2134L42.944 23.8701L45.0566 25.6306Z" fill="#4D55B2"/>
</svg>
