<svg width="66" height="67" viewBox="0 0 66 67" fill="none" xmlns="http://www.w3.org/2000/svg">
<path fill-rule="evenodd" clip-rule="evenodd" d="M12.375 22.5C12.375 21.7406 12.9906 21.125 13.75 21.125H35.75C36.5094 21.125 37.125 21.7406 37.125 22.5C37.125 23.2594 36.5094 23.875 35.75 23.875H13.75C12.9906 23.875 12.375 23.2594 12.375 22.5Z" fill="#4D55B2"/>
<path fill-rule="evenodd" clip-rule="evenodd" d="M12.375 33.5C12.375 32.7406 12.9906 32.125 13.75 32.125H30.25C31.0094 32.125 31.625 32.7406 31.625 33.5C31.625 34.2594 31.0094 34.875 30.25 34.875H13.75C12.9906 34.875 12.375 34.2594 12.375 33.5Z" fill="#4D55B2"/>
<path fill-rule="evenodd" clip-rule="evenodd" d="M12.375 44.5C12.375 43.7406 12.9906 43.125 13.75 43.125H24.75C25.5094 43.125 26.125 43.7406 26.125 44.5C26.125 45.2594 25.5094 45.875 24.75 45.875H13.75C12.9906 45.875 12.375 45.2594 12.375 44.5Z" fill="#4D55B2"/>
<path fill-rule="evenodd" clip-rule="evenodd" d="M61.4727 42.7223L52.2504 51.9445L43.0281 42.7223L44.9727 40.7777L50.8754 46.6805L50.8754 17L53.6254 17L53.6254 46.6805L59.5281 40.7777L61.4727 42.7223Z" fill="#4D55B2"/>
</svg>
