<svg width="66" height="67" viewBox="0 0 66 67" fill="none" xmlns="http://www.w3.org/2000/svg">
<path fill-rule="evenodd" clip-rule="evenodd" d="M21.4452 18.3192C25.0392 16.5468 28.9927 15.625 33 15.625C37.0073 15.625 40.9608 16.5468 44.5548 18.3192C48.1488 20.0916 51.2869 22.6669 53.7264 25.8461C56.1658 29.0253 57.8412 32.723 58.623 36.6533C59.4048 40.5835 59.272 44.6409 58.2348 48.5117C58.0383 49.2452 57.2843 49.6805 56.5508 49.4839C55.8173 49.2874 55.382 48.5334 55.5785 47.7999C56.5065 44.3366 56.6253 40.7063 55.9259 37.1898C55.2264 33.6732 53.7273 30.3647 51.5446 27.5202C49.362 24.6757 46.5542 22.3714 43.3385 20.7856C40.1228 19.1998 36.5854 18.375 33 18.375C29.4146 18.375 25.8772 19.1998 22.6615 20.7856C19.4458 22.3714 16.638 24.6757 14.4554 27.5202C12.2727 30.3647 10.7736 33.6732 10.0741 37.1898C9.37466 40.7063 9.49351 44.3366 10.4215 47.7999C10.618 48.5334 10.1827 49.2874 9.44921 49.4839C8.7157 49.6805 7.96173 49.2452 7.76519 48.5117C6.72804 44.6409 6.59521 40.5835 7.37698 36.6533C8.15876 32.723 9.83418 29.0253 12.2736 25.8461C14.7131 22.6669 17.8512 20.0916 21.4452 18.3192Z" fill="#4D55B2"/>
<path fill-rule="evenodd" clip-rule="evenodd" d="M18.0068 28.1802C19.4967 31.7764 21.4495 36.4356 23.2097 40.4629C24.1003 42.5008 24.9381 44.3687 25.6398 45.8521C26.3598 47.3745 26.89 48.3904 27.1733 48.8027C27.9141 49.8807 30.0645 50.3476 32.2215 48.8654C34.3785 47.3831 34.7134 45.2083 33.9727 44.1303C33.6893 43.718 32.931 42.8589 31.7679 41.6409C30.6346 40.4541 29.1912 39.0024 27.608 37.4404C24.4794 34.3535 20.8299 30.8603 18.0068 28.1802ZM15.4145 29.1078C14.2824 26.3743 17.6561 24.0559 19.8021 26.0927C22.6427 28.7887 26.3556 32.3415 29.5395 35.4829C31.1308 37.0529 32.5962 38.5264 33.7568 39.7417C34.8875 40.9258 35.8081 41.9456 36.2391 42.5728C38.1794 45.3963 36.6289 49.1734 33.779 51.1318C30.9291 53.0903 26.8471 53.1837 24.9069 50.3602C24.4759 49.733 23.8539 48.508 23.1538 47.0279C22.4353 45.5088 21.5851 43.6126 20.6899 41.5642C18.8986 37.4659 16.913 32.7261 15.4145 29.1078Z" fill="#4D55B2"/>
<path fill-rule="evenodd" clip-rule="evenodd" d="M33 15.625C33.7594 15.625 34.375 16.2406 34.375 17V22.5C34.375 23.2594 33.7594 23.875 33 23.875C32.2406 23.875 31.625 23.2594 31.625 22.5V17C31.625 16.2406 32.2406 15.625 33 15.625Z" fill="#4D55B2"/>
<path fill-rule="evenodd" clip-rule="evenodd" d="M14.527 23.2758C15.0639 22.7388 15.9345 22.7388 16.4715 23.2758L20.3606 27.1649C20.8976 27.7018 20.8976 28.5724 20.3606 29.1094C19.8236 29.6464 18.953 29.6464 18.416 29.1094L14.527 25.2203C13.99 24.6833 13.99 23.8127 14.527 23.2758Z" fill="#4D55B2"/>
<path fill-rule="evenodd" clip-rule="evenodd" d="M51.473 23.2758C50.9361 22.7388 50.0655 22.7388 49.5285 23.2758L45.6394 27.1649C45.1024 27.7018 45.1024 28.5724 45.6394 29.1094C46.1764 29.6464 47.047 29.6464 47.584 29.1094L51.473 25.2203C52.01 24.6833 52.01 23.8127 51.473 23.2758Z" fill="#4D55B2"/>
<path fill-rule="evenodd" clip-rule="evenodd" d="M58.234 48.5108C58.0374 49.2443 57.2835 49.6796 56.5499 49.483L51.2374 48.0595C50.5038 47.863 50.0685 47.109 50.2651 46.3755C50.4616 45.642 51.2156 45.2067 51.9491 45.4032L57.2617 46.8267C57.9952 47.0233 58.4305 47.7772 58.234 48.5108Z" fill="#4D55B2"/>
<path fill-rule="evenodd" clip-rule="evenodd" d="M7.76603 48.5108C7.96258 49.2443 8.71654 49.6796 9.45006 49.483L14.7626 48.0595C15.4962 47.863 15.9315 47.109 15.7349 46.3755C15.5384 45.642 14.7844 45.2067 14.0509 45.4032L8.7383 46.8267C8.00479 47.0233 7.56949 47.7772 7.76603 48.5108Z" fill="#4D55B2"/>
</svg>
