<svg width="152" height="78" viewBox="0 0 152 78" fill="none" xmlns="http://www.w3.org/2000/svg">
<path fill-rule="evenodd" clip-rule="evenodd" d="M27.8403 9.71678C29.0769 25.1181 35.6711 27.4611 37.1122 36.6397C37.8769 41.5055 37.9862 44.7493 38.6393 46.3712C39.2948 47.9932 41.3658 49.7234 41.3658 49.7234C41.3658 49.7234 36.3242 51.5803 36.1778 54.9209C36.0314 58.2615 36.0314 59.8604 38.2302 59.7152C40.4291 59.5701 41.3821 59.4249 41.4541 58.3352C41.5285 57.2455 41.0892 56.7386 40.2826 57.174C39.4761 57.6095 38.1582 58.6255 38.1582 58.6255C38.7067 56.9483 42.686 53.9187 39.6969 54.4117C38.7276 54.573 44.2898 49.6888 50.4703 54.702C53.6942 57.3169 55.2353 57.3906 56.6253 57.462C58.0175 57.5358 52.9597 57.3169 47.537 59.3512C42.1142 61.3855 40.7743 64.1668 27.3104 63.8553C4.85138 62.0421 -4.25758 38.9228 1.85783 20.5864C5.59541 9.37811 13.8732 5.13209 18.9798 2.96185C33.0911 -3.0328 49.8288 -0.0884609 58.9217 13.2647C61.783 17.467 64.2096 23.8625 64.2096 28.9909C64.2096 28.9909 62.2037 22.3926 61.1089 20.5864C60.0142 18.7779 59.8329 18.688 59.8329 18.688L59.9235 22.5746C59.1472 13.4536 54.9238 11.1843 47.9763 6.39461L50.2565 11.9078C42.7163 2.85357 34.1882 1.0819 23.173 4.40637L31.1061 7.11802C20.5999 6.72636 7.61835 11.4562 5.48226 23.116C7.21391 21.0956 13.585 18.1328 16.1511 18.4162C7.93679 23.715 2.28858 39.3076 8.35982 44.9521L10.052 39.326C10.568 48.9009 17.0018 57.3814 27.3847 56.9068C25.6438 54.0707 24.1678 51.1955 24.1678 47.795C24.1678 47.795 28.54 52.1539 28.7631 52.2737C28.9862 52.3935 26.1575 48.7811 25.3161 45.6686C24.4746 42.556 24.3956 38.5312 24.3956 38.5312C24.3956 38.5312 28.1495 43.9107 28.6097 44.3001C28.8049 44.4659 25.6182 37.9322 26.1575 29.4954C26.9013 31.6726 29.4093 37.5175 31.7499 38.1511C28.1518 28.4587 23.1265 19.9874 27.8333 9.71217L27.8403 9.71678Z" fill="url(#paint0_linear_542_18511)"/>
<path fill-rule="evenodd" clip-rule="evenodd" d="M27.8403 9.71678C29.0769 25.1181 35.6711 27.4611 37.1122 36.6397C37.8769 41.5055 37.9862 44.7493 38.6393 46.3712C39.2948 47.9932 41.3658 49.7234 41.3658 49.7234C41.3658 49.7234 36.3242 51.5803 36.1778 54.9209C36.0314 58.2615 36.0314 59.8604 38.2302 59.7152C40.4291 59.5701 41.3821 59.4249 41.4541 58.3352C41.5285 57.2455 41.0892 56.7386 40.2826 57.174C39.4761 57.6095 38.1582 58.6255 38.1582 58.6255C38.7067 56.9483 42.686 53.9187 39.6969 54.4117C38.7276 54.573 44.2898 49.6888 50.4703 54.702C53.6942 57.3169 55.2353 57.3906 56.6253 57.462C58.0175 57.5358 52.9597 57.3169 47.537 59.3512C42.1142 61.3855 40.7743 64.1668 27.3104 63.8553C4.85138 62.0421 -4.25758 38.9228 1.85783 20.5864C5.59541 9.37811 13.8732 5.13209 18.9798 2.96185C33.0911 -3.0328 49.8288 -0.0884609 58.9217 13.2647C61.783 17.467 64.2096 23.8625 64.2096 28.9909C64.2096 28.9909 62.2037 22.3926 61.1089 20.5864C60.0142 18.7779 59.8329 18.688 59.8329 18.688L59.9235 22.5746C59.1472 13.4536 54.9238 11.1843 47.9763 6.39461L50.2565 11.9078C42.7163 2.85357 34.1882 1.0819 23.173 4.40637L31.1061 7.11802C20.5999 6.72636 7.61835 11.4562 5.48226 23.116C7.21391 21.0956 13.585 18.1328 16.1511 18.4162C7.93679 23.715 2.28858 39.3076 8.35982 44.9521L10.052 39.326C10.568 48.9009 17.0018 57.3814 27.3847 56.9068C25.6438 54.0707 24.1678 51.1955 24.1678 47.795C24.1678 47.795 28.54 52.1539 28.7631 52.2737C28.9862 52.3935 26.1575 48.7811 25.3161 45.6686C24.4746 42.556 24.3956 38.5312 24.3956 38.5312C24.3956 38.5312 28.1495 43.9107 28.6097 44.3001C28.8049 44.4659 25.6182 37.9322 26.1575 29.4954C26.9013 31.6726 29.4093 37.5175 31.7499 38.1511C28.1518 28.4587 23.1265 19.9874 27.8333 9.71217L27.8403 9.71678Z" fill="url(#paint1_linear_542_18511)"/>
<path d="M51.6465 40.0128C49.5527 39.5029 48.0748 38.8603 47.2126 38.0852C46.371 37.2897 45.9502 36.3005 45.9502 35.1174C45.9502 33.6896 46.4634 32.5678 47.4897 31.7519C48.5366 30.936 50.0762 30.528 52.1084 30.528C53.4222 30.528 54.7462 30.6708 56.0804 30.9564C56.4499 31.0379 56.7476 31.2419 56.9734 31.5683C57.2197 31.8742 57.3429 32.221 57.3429 32.6085C57.3429 32.9349 57.2094 33.1899 56.9426 33.3734C56.6757 33.557 56.3884 33.5978 56.0804 33.4958C54.7872 33.1491 53.5658 32.9757 52.4163 32.9757C50.2609 32.9757 49.1833 33.5876 49.1833 34.8115C49.1833 35.4234 49.3885 35.9231 49.7991 36.3107C50.2096 36.6982 50.9281 37.0144 51.9544 37.2592C54.3151 37.8099 55.906 38.4728 56.7271 39.2479C57.5482 40.0026 57.9587 41.1245 57.9587 42.6135C57.9587 44.0005 57.4147 45.0917 56.3268 45.8872C55.2594 46.6623 53.6993 47.0499 51.6465 47.0499C50.3123 47.0499 48.978 46.8765 47.6437 46.5298C47.2742 46.4278 46.9766 46.2238 46.7508 45.9178C46.525 45.5915 46.4121 45.2345 46.4121 44.847C46.4121 44.541 46.5352 44.2962 46.7816 44.1127C47.0484 43.9291 47.3255 43.8883 47.6129 43.9903C48.8856 44.3982 50.1275 44.6022 51.3386 44.6022C53.5966 44.6022 54.7256 43.9393 54.7256 42.6135C54.7256 41.9811 54.4998 41.4712 54.0482 41.0837C53.5966 40.6757 52.7961 40.3188 51.6465 40.0128Z" fill="url(#paint2_linear_542_18511)"/>
<path d="M51.6465 40.0128C49.5527 39.5029 48.0748 38.8603 47.2126 38.0852C46.371 37.2897 45.9502 36.3005 45.9502 35.1174C45.9502 33.6896 46.4634 32.5678 47.4897 31.7519C48.5366 30.936 50.0762 30.528 52.1084 30.528C53.4222 30.528 54.7462 30.6708 56.0804 30.9564C56.4499 31.0379 56.7476 31.2419 56.9734 31.5683C57.2197 31.8742 57.3429 32.221 57.3429 32.6085C57.3429 32.9349 57.2094 33.1899 56.9426 33.3734C56.6757 33.557 56.3884 33.5978 56.0804 33.4958C54.7872 33.1491 53.5658 32.9757 52.4163 32.9757C50.2609 32.9757 49.1833 33.5876 49.1833 34.8115C49.1833 35.4234 49.3885 35.9231 49.7991 36.3107C50.2096 36.6982 50.9281 37.0144 51.9544 37.2592C54.3151 37.8099 55.906 38.4728 56.7271 39.2479C57.5482 40.0026 57.9587 41.1245 57.9587 42.6135C57.9587 44.0005 57.4147 45.0917 56.3268 45.8872C55.2594 46.6623 53.6993 47.0499 51.6465 47.0499C50.3123 47.0499 48.978 46.8765 47.6437 46.5298C47.2742 46.4278 46.9766 46.2238 46.7508 45.9178C46.525 45.5915 46.4121 45.2345 46.4121 44.847C46.4121 44.541 46.5352 44.2962 46.7816 44.1127C47.0484 43.9291 47.3255 43.8883 47.6129 43.9903C48.8856 44.3982 50.1275 44.6022 51.3386 44.6022C53.5966 44.6022 54.7256 43.9393 54.7256 42.6135C54.7256 41.9811 54.4998 41.4712 54.0482 41.0837C53.5966 40.6757 52.7961 40.3188 51.6465 40.0128Z" fill="white" fill-opacity="0.2"/>
<path d="M51.6465 40.0128C49.5527 39.5029 48.0748 38.8603 47.2126 38.0852C46.371 37.2897 45.9502 36.3005 45.9502 35.1174C45.9502 33.6896 46.4634 32.5678 47.4897 31.7519C48.5366 30.936 50.0762 30.528 52.1084 30.528C53.4222 30.528 54.7462 30.6708 56.0804 30.9564C56.4499 31.0379 56.7476 31.2419 56.9734 31.5683C57.2197 31.8742 57.3429 32.221 57.3429 32.6085C57.3429 32.9349 57.2094 33.1899 56.9426 33.3734C56.6757 33.557 56.3884 33.5978 56.0804 33.4958C54.7872 33.1491 53.5658 32.9757 52.4163 32.9757C50.2609 32.9757 49.1833 33.5876 49.1833 34.8115C49.1833 35.4234 49.3885 35.9231 49.7991 36.3107C50.2096 36.6982 50.9281 37.0144 51.9544 37.2592C54.3151 37.8099 55.906 38.4728 56.7271 39.2479C57.5482 40.0026 57.9587 41.1245 57.9587 42.6135C57.9587 44.0005 57.4147 45.0917 56.3268 45.8872C55.2594 46.6623 53.6993 47.0499 51.6465 47.0499C50.3123 47.0499 48.978 46.8765 47.6437 46.5298C47.2742 46.4278 46.9766 46.2238 46.7508 45.9178C46.525 45.5915 46.4121 45.2345 46.4121 44.847C46.4121 44.541 46.5352 44.2962 46.7816 44.1127C47.0484 43.9291 47.3255 43.8883 47.6129 43.9903C48.8856 44.3982 50.1275 44.6022 51.3386 44.6022C53.5966 44.6022 54.7256 43.9393 54.7256 42.6135C54.7256 41.9811 54.4998 41.4712 54.0482 41.0837C53.5966 40.6757 52.7961 40.3188 51.6465 40.0128Z" fill="#818DFF"/>
<path d="M68.0861 32.9145C65.7459 32.9145 64.4322 34.2913 64.1448 37.045C64.1038 37.2286 64.1859 37.3203 64.3911 37.3203H71.2883C71.4525 37.3203 71.5347 37.2286 71.5347 37.045C71.4115 34.2913 70.262 32.9145 68.0861 32.9145ZM68.8558 47.0499C66.2899 47.0499 64.309 46.3564 62.9132 44.9694C61.5378 43.5823 60.8502 41.5222 60.8502 38.789C60.8502 36.0557 61.466 33.9956 62.6976 32.6085C63.9498 31.2215 65.7459 30.528 68.0861 30.528C72.3557 30.528 74.5624 33.0165 74.7061 37.9935C74.7267 38.483 74.5522 38.8909 74.1827 39.2173C73.8132 39.5437 73.3821 39.7068 72.8895 39.7068H64.3603C64.1961 39.7068 64.114 39.7884 64.114 39.9516C64.3603 43.0928 66.0436 44.6634 69.1637 44.6634C70.2517 44.6634 71.3191 44.49 72.366 44.1433C72.6739 44.0413 72.9613 44.0821 73.2282 44.2657C73.495 44.4492 73.6284 44.7042 73.6284 45.0306C73.6284 45.4181 73.5053 45.7649 73.259 46.0708C73.0126 46.3768 72.6945 46.5808 72.3044 46.6827C71.1754 46.9275 70.0259 47.0499 68.8558 47.0499Z" fill="url(#paint3_linear_542_18511)"/>
<path d="M68.0861 32.9145C65.7459 32.9145 64.4322 34.2913 64.1448 37.045C64.1038 37.2286 64.1859 37.3203 64.3911 37.3203H71.2883C71.4525 37.3203 71.5347 37.2286 71.5347 37.045C71.4115 34.2913 70.262 32.9145 68.0861 32.9145ZM68.8558 47.0499C66.2899 47.0499 64.309 46.3564 62.9132 44.9694C61.5378 43.5823 60.8502 41.5222 60.8502 38.789C60.8502 36.0557 61.466 33.9956 62.6976 32.6085C63.9498 31.2215 65.7459 30.528 68.0861 30.528C72.3557 30.528 74.5624 33.0165 74.7061 37.9935C74.7267 38.483 74.5522 38.8909 74.1827 39.2173C73.8132 39.5437 73.3821 39.7068 72.8895 39.7068H64.3603C64.1961 39.7068 64.114 39.7884 64.114 39.9516C64.3603 43.0928 66.0436 44.6634 69.1637 44.6634C70.2517 44.6634 71.3191 44.49 72.366 44.1433C72.6739 44.0413 72.9613 44.0821 73.2282 44.2657C73.495 44.4492 73.6284 44.7042 73.6284 45.0306C73.6284 45.4181 73.5053 45.7649 73.259 46.0708C73.0126 46.3768 72.6945 46.5808 72.3044 46.6827C71.1754 46.9275 70.0259 47.0499 68.8558 47.0499Z" fill="white" fill-opacity="0.2"/>
<path d="M68.0861 32.9145C65.7459 32.9145 64.4322 34.2913 64.1448 37.045C64.1038 37.2286 64.1859 37.3203 64.3911 37.3203H71.2883C71.4525 37.3203 71.5347 37.2286 71.5347 37.045C71.4115 34.2913 70.262 32.9145 68.0861 32.9145ZM68.8558 47.0499C66.2899 47.0499 64.309 46.3564 62.9132 44.9694C61.5378 43.5823 60.8502 41.5222 60.8502 38.789C60.8502 36.0557 61.466 33.9956 62.6976 32.6085C63.9498 31.2215 65.7459 30.528 68.0861 30.528C72.3557 30.528 74.5624 33.0165 74.7061 37.9935C74.7267 38.483 74.5522 38.8909 74.1827 39.2173C73.8132 39.5437 73.3821 39.7068 72.8895 39.7068H64.3603C64.1961 39.7068 64.114 39.7884 64.114 39.9516C64.3603 43.0928 66.0436 44.6634 69.1637 44.6634C70.2517 44.6634 71.3191 44.49 72.366 44.1433C72.6739 44.0413 72.9613 44.0821 73.2282 44.2657C73.495 44.4492 73.6284 44.7042 73.6284 45.0306C73.6284 45.4181 73.5053 45.7649 73.259 46.0708C73.0126 46.3768 72.6945 46.5808 72.3044 46.6827C71.1754 46.9275 70.0259 47.0499 68.8558 47.0499Z" fill="#818DFF"/>
<path d="M89.2414 38.789C89.2414 34.9135 87.825 32.9757 84.9923 32.9757C82.1595 32.9757 80.7431 34.9135 80.7431 38.789C80.7431 42.6645 82.1595 44.6022 84.9923 44.6022C87.825 44.6022 89.2414 42.6645 89.2414 38.789ZM90.5346 44.9082C89.2004 46.336 87.3529 47.0499 84.9923 47.0499C82.6316 47.0499 80.7842 46.336 79.4499 44.9082C78.1156 43.46 77.4485 41.4202 77.4485 38.789C77.4485 36.1577 78.1156 34.1282 79.4499 32.7003C80.7842 31.2521 82.6316 30.528 84.9923 30.528C87.3529 30.528 89.2004 31.2521 90.5346 32.7003C91.8689 34.1282 92.5361 36.1577 92.5361 38.789C92.5361 41.4202 91.8689 43.46 90.5346 44.9082Z" fill="url(#paint4_linear_542_18511)"/>
<path d="M89.2414 38.789C89.2414 34.9135 87.825 32.9757 84.9923 32.9757C82.1595 32.9757 80.7431 34.9135 80.7431 38.789C80.7431 42.6645 82.1595 44.6022 84.9923 44.6022C87.825 44.6022 89.2414 42.6645 89.2414 38.789ZM90.5346 44.9082C89.2004 46.336 87.3529 47.0499 84.9923 47.0499C82.6316 47.0499 80.7842 46.336 79.4499 44.9082C78.1156 43.46 77.4485 41.4202 77.4485 38.789C77.4485 36.1577 78.1156 34.1282 79.4499 32.7003C80.7842 31.2521 82.6316 30.528 84.9923 30.528C87.3529 30.528 89.2004 31.2521 90.5346 32.7003C91.8689 34.1282 92.5361 36.1577 92.5361 38.789C92.5361 41.4202 91.8689 43.46 90.5346 44.9082Z" fill="white" fill-opacity="0.2"/>
<path d="M89.2414 38.789C89.2414 34.9135 87.825 32.9757 84.9923 32.9757C82.1595 32.9757 80.7431 34.9135 80.7431 38.789C80.7431 42.6645 82.1595 44.6022 84.9923 44.6022C87.825 44.6022 89.2414 42.6645 89.2414 38.789ZM90.5346 44.9082C89.2004 46.336 87.3529 47.0499 84.9923 47.0499C82.6316 47.0499 80.7842 46.336 79.4499 44.9082C78.1156 43.46 77.4485 41.4202 77.4485 38.789C77.4485 36.1577 78.1156 34.1282 79.4499 32.7003C80.7842 31.2521 82.6316 30.528 84.9923 30.528C87.3529 30.528 89.2004 31.2521 90.5346 32.7003C91.8689 34.1282 92.5361 36.1577 92.5361 38.789C92.5361 41.4202 91.8689 43.46 90.5346 44.9082Z" fill="#818DFF"/>
<path d="M98.6774 46.285C98.3695 46.591 97.9898 46.7439 97.5382 46.7439C97.0866 46.7439 96.6965 46.591 96.3681 46.285C96.0602 45.979 95.9062 45.6017 95.9062 45.1529V32.3332C95.9062 31.9252 96.0499 31.5785 96.3373 31.2929C96.6452 30.987 97.0045 30.834 97.415 30.834C97.8255 30.834 98.1745 30.987 98.4619 31.2929C98.7698 31.5785 98.934 31.9252 98.9545 32.3332L98.9853 32.7921C98.9853 32.8125 98.9956 32.8227 99.0161 32.8227C99.0367 32.8227 99.0572 32.8125 99.0777 32.7921C100.535 31.2827 102.198 30.528 104.066 30.528C105.934 30.528 107.299 31.0583 108.161 32.119C109.023 33.1593 109.454 34.8727 109.454 37.2592V45.1835C109.454 45.6119 109.3 45.979 108.992 46.285C108.685 46.591 108.315 46.7439 107.884 46.7439C107.453 46.7439 107.073 46.591 106.745 46.285C106.437 45.979 106.283 45.6119 106.283 45.1835V37.7181C106.283 35.8823 106.057 34.6381 105.605 33.9854C105.154 33.3123 104.333 32.9757 103.142 32.9757C102.177 32.9757 101.264 33.404 100.402 34.2607C99.5601 35.097 99.1393 35.9945 99.1393 36.9532V45.1529C99.1393 45.6017 98.9853 45.979 98.6774 46.285Z" fill="url(#paint5_linear_542_18511)"/>
<path d="M98.6774 46.285C98.3695 46.591 97.9898 46.7439 97.5382 46.7439C97.0866 46.7439 96.6965 46.591 96.3681 46.285C96.0602 45.979 95.9062 45.6017 95.9062 45.1529V32.3332C95.9062 31.9252 96.0499 31.5785 96.3373 31.2929C96.6452 30.987 97.0045 30.834 97.415 30.834C97.8255 30.834 98.1745 30.987 98.4619 31.2929C98.7698 31.5785 98.934 31.9252 98.9545 32.3332L98.9853 32.7921C98.9853 32.8125 98.9956 32.8227 99.0161 32.8227C99.0367 32.8227 99.0572 32.8125 99.0777 32.7921C100.535 31.2827 102.198 30.528 104.066 30.528C105.934 30.528 107.299 31.0583 108.161 32.119C109.023 33.1593 109.454 34.8727 109.454 37.2592V45.1835C109.454 45.6119 109.3 45.979 108.992 46.285C108.685 46.591 108.315 46.7439 107.884 46.7439C107.453 46.7439 107.073 46.591 106.745 46.285C106.437 45.979 106.283 45.6119 106.283 45.1835V37.7181C106.283 35.8823 106.057 34.6381 105.605 33.9854C105.154 33.3123 104.333 32.9757 103.142 32.9757C102.177 32.9757 101.264 33.404 100.402 34.2607C99.5601 35.097 99.1393 35.9945 99.1393 36.9532V45.1529C99.1393 45.6017 98.9853 45.979 98.6774 46.285Z" fill="white" fill-opacity="0.2"/>
<path d="M98.6774 46.285C98.3695 46.591 97.9898 46.7439 97.5382 46.7439C97.0866 46.7439 96.6965 46.591 96.3681 46.285C96.0602 45.979 95.9062 45.6017 95.9062 45.1529V32.3332C95.9062 31.9252 96.0499 31.5785 96.3373 31.2929C96.6452 30.987 97.0045 30.834 97.415 30.834C97.8255 30.834 98.1745 30.987 98.4619 31.2929C98.7698 31.5785 98.934 31.9252 98.9545 32.3332L98.9853 32.7921C98.9853 32.8125 98.9956 32.8227 99.0161 32.8227C99.0367 32.8227 99.0572 32.8125 99.0777 32.7921C100.535 31.2827 102.198 30.528 104.066 30.528C105.934 30.528 107.299 31.0583 108.161 32.119C109.023 33.1593 109.454 34.8727 109.454 37.2592V45.1835C109.454 45.6119 109.3 45.979 108.992 46.285C108.685 46.591 108.315 46.7439 107.884 46.7439C107.453 46.7439 107.073 46.591 106.745 46.285C106.437 45.979 106.283 45.6119 106.283 45.1835V37.7181C106.283 35.8823 106.057 34.6381 105.605 33.9854C105.154 33.3123 104.333 32.9757 103.142 32.9757C102.177 32.9757 101.264 33.404 100.402 34.2607C99.5601 35.097 99.1393 35.9945 99.1393 36.9532V45.1529C99.1393 45.6017 98.9853 45.979 98.6774 46.285Z" fill="#818DFF"/>
<path d="M114.815 25.4797C114.815 25.0105 114.979 24.6128 115.308 24.2864C115.657 23.9601 116.057 23.7969 116.509 23.7969C116.96 23.7969 117.35 23.9601 117.679 24.2864C118.028 24.6128 118.202 25.0105 118.202 25.4797C118.202 25.9488 118.028 26.3465 117.679 26.6729C117.35 26.9993 116.96 27.1624 116.509 27.1624C116.057 27.1624 115.657 26.9993 115.308 26.6729C114.979 26.3465 114.815 25.9488 114.815 25.4797ZM117.679 46.2544C117.35 46.5808 116.96 46.7439 116.509 46.7439C116.057 46.7439 115.657 46.5808 115.308 46.2544C114.979 45.928 114.815 45.5303 114.815 45.0612V32.5168C114.815 32.0476 114.979 31.6499 115.308 31.3235C115.657 30.9972 116.057 30.834 116.509 30.834C116.96 30.834 117.35 30.9972 117.679 31.3235C118.028 31.6499 118.202 32.0476 118.202 32.5168V45.0612C118.202 45.5303 118.028 45.928 117.679 46.2544Z" fill="url(#paint6_linear_542_18511)"/>
<path d="M114.815 25.4797C114.815 25.0105 114.979 24.6128 115.308 24.2864C115.657 23.9601 116.057 23.7969 116.509 23.7969C116.96 23.7969 117.35 23.9601 117.679 24.2864C118.028 24.6128 118.202 25.0105 118.202 25.4797C118.202 25.9488 118.028 26.3465 117.679 26.6729C117.35 26.9993 116.96 27.1624 116.509 27.1624C116.057 27.1624 115.657 26.9993 115.308 26.6729C114.979 26.3465 114.815 25.9488 114.815 25.4797ZM117.679 46.2544C117.35 46.5808 116.96 46.7439 116.509 46.7439C116.057 46.7439 115.657 46.5808 115.308 46.2544C114.979 45.928 114.815 45.5303 114.815 45.0612V32.5168C114.815 32.0476 114.979 31.6499 115.308 31.3235C115.657 30.9972 116.057 30.834 116.509 30.834C116.96 30.834 117.35 30.9972 117.679 31.3235C118.028 31.6499 118.202 32.0476 118.202 32.5168V45.0612C118.202 45.5303 118.028 45.928 117.679 46.2544Z" fill="white" fill-opacity="0.2"/>
<path d="M114.815 25.4797C114.815 25.0105 114.979 24.6128 115.308 24.2864C115.657 23.9601 116.057 23.7969 116.509 23.7969C116.96 23.7969 117.35 23.9601 117.679 24.2864C118.028 24.6128 118.202 25.0105 118.202 25.4797C118.202 25.9488 118.028 26.3465 117.679 26.6729C117.35 26.9993 116.96 27.1624 116.509 27.1624C116.057 27.1624 115.657 26.9993 115.308 26.6729C114.979 26.3465 114.815 25.9488 114.815 25.4797ZM117.679 46.2544C117.35 46.5808 116.96 46.7439 116.509 46.7439C116.057 46.7439 115.657 46.5808 115.308 46.2544C114.979 45.928 114.815 45.5303 114.815 45.0612V32.5168C114.815 32.0476 114.979 31.6499 115.308 31.3235C115.657 30.9972 116.057 30.834 116.509 30.834C116.96 30.834 117.35 30.9972 117.679 31.3235C118.028 31.6499 118.202 32.0476 118.202 32.5168V45.0612C118.202 45.5303 118.028 45.928 117.679 46.2544Z" fill="#818DFF"/>
<path d="M126.615 46.285C126.307 46.591 125.927 46.7439 125.475 46.7439C125.024 46.7439 124.644 46.591 124.336 46.285C124.028 45.979 123.874 45.6017 123.874 45.1529V25.3879C123.874 24.9391 124.028 24.5618 124.336 24.2558C124.644 23.9499 125.024 23.7969 125.475 23.7969C125.927 23.7969 126.307 23.9499 126.615 24.2558C126.943 24.5618 127.107 24.9391 127.107 25.3879V37.8405C127.107 37.8609 127.118 37.8711 127.138 37.8711L127.2 37.8405L132.681 32.0884C133.481 31.2521 134.466 30.834 135.637 30.834H135.975C136.304 30.834 136.529 30.987 136.653 31.2929C136.796 31.5989 136.755 31.864 136.529 32.0884L130.525 38.2994C130.423 38.4014 130.423 38.5238 130.525 38.6666L136.56 45.4589C136.786 45.7037 136.827 45.979 136.683 46.285C136.56 46.591 136.324 46.7439 135.975 46.7439H135.637C134.487 46.7439 133.522 46.3054 132.742 45.4283L127.2 39.1255C127.179 39.1051 127.159 39.0949 127.138 39.0949C127.118 39.0949 127.107 39.1051 127.107 39.1255V45.1529C127.107 45.6017 126.943 45.979 126.615 46.285Z" fill="url(#paint7_linear_542_18511)"/>
<path d="M126.615 46.285C126.307 46.591 125.927 46.7439 125.475 46.7439C125.024 46.7439 124.644 46.591 124.336 46.285C124.028 45.979 123.874 45.6017 123.874 45.1529V25.3879C123.874 24.9391 124.028 24.5618 124.336 24.2558C124.644 23.9499 125.024 23.7969 125.475 23.7969C125.927 23.7969 126.307 23.9499 126.615 24.2558C126.943 24.5618 127.107 24.9391 127.107 25.3879V37.8405C127.107 37.8609 127.118 37.8711 127.138 37.8711L127.2 37.8405L132.681 32.0884C133.481 31.2521 134.466 30.834 135.637 30.834H135.975C136.304 30.834 136.529 30.987 136.653 31.2929C136.796 31.5989 136.755 31.864 136.529 32.0884L130.525 38.2994C130.423 38.4014 130.423 38.5238 130.525 38.6666L136.56 45.4589C136.786 45.7037 136.827 45.979 136.683 46.285C136.56 46.591 136.324 46.7439 135.975 46.7439H135.637C134.487 46.7439 133.522 46.3054 132.742 45.4283L127.2 39.1255C127.179 39.1051 127.159 39.0949 127.138 39.0949C127.118 39.0949 127.107 39.1051 127.107 39.1255V45.1529C127.107 45.6017 126.943 45.979 126.615 46.285Z" fill="white" fill-opacity="0.2"/>
<path d="M126.615 46.285C126.307 46.591 125.927 46.7439 125.475 46.7439C125.024 46.7439 124.644 46.591 124.336 46.285C124.028 45.979 123.874 45.6017 123.874 45.1529V25.3879C123.874 24.9391 124.028 24.5618 124.336 24.2558C124.644 23.9499 125.024 23.7969 125.475 23.7969C125.927 23.7969 126.307 23.9499 126.615 24.2558C126.943 24.5618 127.107 24.9391 127.107 25.3879V37.8405C127.107 37.8609 127.118 37.8711 127.138 37.8711L127.2 37.8405L132.681 32.0884C133.481 31.2521 134.466 30.834 135.637 30.834H135.975C136.304 30.834 136.529 30.987 136.653 31.2929C136.796 31.5989 136.755 31.864 136.529 32.0884L130.525 38.2994C130.423 38.4014 130.423 38.5238 130.525 38.6666L136.56 45.4589C136.786 45.7037 136.827 45.979 136.683 46.285C136.56 46.591 136.324 46.7439 135.975 46.7439H135.637C134.487 46.7439 133.522 46.3054 132.742 45.4283L127.2 39.1255C127.179 39.1051 127.159 39.0949 127.138 39.0949C127.118 39.0949 127.107 39.1051 127.107 39.1255V45.1529C127.107 45.6017 126.943 45.979 126.615 46.285Z" fill="#818DFF"/>
<path d="M147.051 38.7278C145.367 38.7278 144.095 39.0133 143.233 39.5845C142.391 40.1352 141.97 40.8899 141.97 41.8486C141.97 42.6033 142.196 43.2254 142.647 43.7149C143.099 44.2045 143.643 44.4492 144.279 44.4492C145.634 44.4492 146.712 44.0311 147.512 43.1948C148.334 42.3381 148.744 41.1754 148.744 39.7068V38.9725C148.744 38.8094 148.652 38.7278 148.467 38.7278H147.051ZM143.51 47.0499C142.114 47.0499 140.964 46.6012 140.061 45.7037C139.178 44.8062 138.737 43.6231 138.737 42.1545C138.737 40.3596 139.425 38.9725 140.8 37.9935C142.175 36.994 144.259 36.4943 147.051 36.4943H148.467C148.652 36.4943 148.744 36.4025 148.744 36.2189V35.8823C148.744 34.8013 148.488 34.0466 147.974 33.6182C147.461 33.1899 146.537 32.9757 145.203 32.9757C144.013 32.9757 142.596 33.2205 140.954 33.71C140.646 33.812 140.348 33.7712 140.061 33.5876C139.794 33.3836 139.661 33.1185 139.661 32.7921C139.661 32.3842 139.784 32.017 140.03 31.6907C140.277 31.3643 140.595 31.1603 140.985 31.0787C142.463 30.7116 143.869 30.528 145.203 30.528C147.79 30.528 149.565 30.987 150.53 31.9048C151.495 32.8227 151.977 34.5055 151.977 36.9532V45.2447C151.977 45.6527 151.823 46.0096 151.515 46.3156C151.228 46.6012 150.879 46.7439 150.468 46.7439C150.058 46.7439 149.699 46.6012 149.391 46.3156C149.103 46.0096 148.949 45.6527 148.929 45.2447L148.898 44.4798C148.898 44.4594 148.888 44.4492 148.867 44.4492C148.826 44.4492 148.806 44.4594 148.806 44.4798C147.615 46.1932 145.85 47.0499 143.51 47.0499Z" fill="url(#paint8_linear_542_18511)"/>
<path d="M147.051 38.7278C145.367 38.7278 144.095 39.0133 143.233 39.5845C142.391 40.1352 141.97 40.8899 141.97 41.8486C141.97 42.6033 142.196 43.2254 142.647 43.7149C143.099 44.2045 143.643 44.4492 144.279 44.4492C145.634 44.4492 146.712 44.0311 147.512 43.1948C148.334 42.3381 148.744 41.1754 148.744 39.7068V38.9725C148.744 38.8094 148.652 38.7278 148.467 38.7278H147.051ZM143.51 47.0499C142.114 47.0499 140.964 46.6012 140.061 45.7037C139.178 44.8062 138.737 43.6231 138.737 42.1545C138.737 40.3596 139.425 38.9725 140.8 37.9935C142.175 36.994 144.259 36.4943 147.051 36.4943H148.467C148.652 36.4943 148.744 36.4025 148.744 36.2189V35.8823C148.744 34.8013 148.488 34.0466 147.974 33.6182C147.461 33.1899 146.537 32.9757 145.203 32.9757C144.013 32.9757 142.596 33.2205 140.954 33.71C140.646 33.812 140.348 33.7712 140.061 33.5876C139.794 33.3836 139.661 33.1185 139.661 32.7921C139.661 32.3842 139.784 32.017 140.03 31.6907C140.277 31.3643 140.595 31.1603 140.985 31.0787C142.463 30.7116 143.869 30.528 145.203 30.528C147.79 30.528 149.565 30.987 150.53 31.9048C151.495 32.8227 151.977 34.5055 151.977 36.9532V45.2447C151.977 45.6527 151.823 46.0096 151.515 46.3156C151.228 46.6012 150.879 46.7439 150.468 46.7439C150.058 46.7439 149.699 46.6012 149.391 46.3156C149.103 46.0096 148.949 45.6527 148.929 45.2447L148.898 44.4798C148.898 44.4594 148.888 44.4492 148.867 44.4492C148.826 44.4492 148.806 44.4594 148.806 44.4798C147.615 46.1932 145.85 47.0499 143.51 47.0499Z" fill="white" fill-opacity="0.2"/>
<path d="M147.051 38.7278C145.367 38.7278 144.095 39.0133 143.233 39.5845C142.391 40.1352 141.97 40.8899 141.97 41.8486C141.97 42.6033 142.196 43.2254 142.647 43.7149C143.099 44.2045 143.643 44.4492 144.279 44.4492C145.634 44.4492 146.712 44.0311 147.512 43.1948C148.334 42.3381 148.744 41.1754 148.744 39.7068V38.9725C148.744 38.8094 148.652 38.7278 148.467 38.7278H147.051ZM143.51 47.0499C142.114 47.0499 140.964 46.6012 140.061 45.7037C139.178 44.8062 138.737 43.6231 138.737 42.1545C138.737 40.3596 139.425 38.9725 140.8 37.9935C142.175 36.994 144.259 36.4943 147.051 36.4943H148.467C148.652 36.4943 148.744 36.4025 148.744 36.2189V35.8823C148.744 34.8013 148.488 34.0466 147.974 33.6182C147.461 33.1899 146.537 32.9757 145.203 32.9757C144.013 32.9757 142.596 33.2205 140.954 33.71C140.646 33.812 140.348 33.7712 140.061 33.5876C139.794 33.3836 139.661 33.1185 139.661 32.7921C139.661 32.3842 139.784 32.017 140.03 31.6907C140.277 31.3643 140.595 31.1603 140.985 31.0787C142.463 30.7116 143.869 30.528 145.203 30.528C147.79 30.528 149.565 30.987 150.53 31.9048C151.495 32.8227 151.977 34.5055 151.977 36.9532V45.2447C151.977 45.6527 151.823 46.0096 151.515 46.3156C151.228 46.6012 150.879 46.7439 150.468 46.7439C150.058 46.7439 149.699 46.6012 149.391 46.3156C149.103 46.0096 148.949 45.6527 148.929 45.2447L148.898 44.4798C148.898 44.4594 148.888 44.4492 148.867 44.4492C148.826 44.4492 148.806 44.4594 148.806 44.4798C147.615 46.1932 145.85 47.0499 143.51 47.0499Z" fill="#818DFF"/>
<defs>
<linearGradient id="paint0_linear_542_18511" x1="5.96327" y1="0.764902" x2="47.1831" y2="58.6355" gradientUnits="userSpaceOnUse">
<stop offset="0.180497" stop-color="#ABB3FF"/>
<stop offset="0.566076" stop-color="#4650AA"/>
<stop offset="0.807024" stop-color="#B741A8"/>
<stop offset="1" stop-color="#E85193"/>
</linearGradient>
<linearGradient id="paint1_linear_542_18511" x1="5.96327" y1="0.764902" x2="47.1831" y2="58.6355" gradientUnits="userSpaceOnUse">
<stop offset="0.180497" stop-color="#ABB3FF"/>
<stop offset="0.566076" stop-color="#4650AA"/>
<stop offset="0.807024" stop-color="#B741A8"/>
<stop offset="1" stop-color="#E85193"/>
</linearGradient>
<linearGradient id="paint2_linear_542_18511" x1="149.398" y1="35.6953" x2="45.9057" y2="35.6953" gradientUnits="userSpaceOnUse">
<stop stop-color="#3A80CE"/>
<stop offset="1" stop-color="#E25096"/>
</linearGradient>
<linearGradient id="paint3_linear_542_18511" x1="149.398" y1="35.6953" x2="45.9057" y2="35.6953" gradientUnits="userSpaceOnUse">
<stop stop-color="#3A80CE"/>
<stop offset="1" stop-color="#E25096"/>
</linearGradient>
<linearGradient id="paint4_linear_542_18511" x1="149.398" y1="35.6953" x2="45.9057" y2="35.6953" gradientUnits="userSpaceOnUse">
<stop stop-color="#3A80CE"/>
<stop offset="1" stop-color="#E25096"/>
</linearGradient>
<linearGradient id="paint5_linear_542_18511" x1="149.398" y1="35.6953" x2="45.9057" y2="35.6953" gradientUnits="userSpaceOnUse">
<stop stop-color="#3A80CE"/>
<stop offset="1" stop-color="#E25096"/>
</linearGradient>
<linearGradient id="paint6_linear_542_18511" x1="149.398" y1="35.6953" x2="45.9057" y2="35.6953" gradientUnits="userSpaceOnUse">
<stop stop-color="#3A80CE"/>
<stop offset="1" stop-color="#E25096"/>
</linearGradient>
<linearGradient id="paint7_linear_542_18511" x1="149.398" y1="35.6953" x2="45.9057" y2="35.6953" gradientUnits="userSpaceOnUse">
<stop stop-color="#3A80CE"/>
<stop offset="1" stop-color="#E25096"/>
</linearGradient>
<linearGradient id="paint8_linear_542_18511" x1="149.398" y1="35.6953" x2="45.9057" y2="35.6953" gradientUnits="userSpaceOnUse">
<stop stop-color="#3A80CE"/>
<stop offset="1" stop-color="#E25096"/>
</linearGradient>
</defs>
</svg>
