<svg width="66" height="67" viewBox="0 0 66 67" fill="none" xmlns="http://www.w3.org/2000/svg">
<path fill-rule="evenodd" clip-rule="evenodd" d="M46.7504 7.09961C47.6617 7.09961 48.4004 7.83834 48.4004 8.74961L48.4004 19.7496C48.4004 20.6609 47.6617 21.3996 46.7504 21.3996C45.8391 21.3996 45.1004 20.6609 45.1004 19.7496L45.1004 8.74961C45.1004 7.83834 45.8391 7.09961 46.7504 7.09961Z" fill="#4D55B2"/>
<path fill-rule="evenodd" clip-rule="evenodd" d="M19.2504 7.09961C20.1617 7.09961 20.9004 7.83834 20.9004 8.74961L20.9004 19.7496C20.9004 20.6609 20.1617 21.3996 19.2504 21.3996C18.3391 21.3996 17.6004 20.6609 17.6004 19.7496L17.6004 8.74961C17.6004 7.83834 18.3391 7.09961 19.2504 7.09961Z" fill="#4D55B2"/>
<path fill-rule="evenodd" clip-rule="evenodd" d="M19.1315 15.3496H46.8677C49.36 15.3496 51.3966 15.3495 53.0045 15.5657C54.6852 15.7917 56.1423 16.2807 57.3054 17.4438C58.4686 18.6069 58.9576 20.0641 59.1835 21.7448C59.3997 23.3527 59.3997 25.3893 59.3996 27.8815V32.3996H6.59961L6.59961 27.8815C6.59956 25.3893 6.59951 23.3527 6.81569 21.7448C7.04165 20.0641 7.53067 18.6069 8.6938 17.4438C9.85692 16.2807 11.3141 15.7917 12.9948 15.5657C14.6027 15.3495 16.6393 15.3496 19.1315 15.3496ZM13.4345 18.8363C12.1197 19.013 11.475 19.3295 11.0273 19.7773C10.5795 20.225 10.263 20.8697 10.0863 22.1845C9.90312 23.5467 9.89961 25.3602 9.89961 27.9996V29.0996H56.0996V27.9996C56.0996 25.3602 56.0961 23.5467 55.913 22.1845C55.7362 20.8697 55.4198 20.225 54.972 19.7773C54.5242 19.3295 53.8795 19.013 52.5647 18.8363C51.2025 18.6531 49.389 18.6496 46.7496 18.6496H19.2496C16.6102 18.6496 14.7967 18.6531 13.4345 18.8363Z" fill="#4D55B2"/>
<path fill-rule="evenodd" clip-rule="evenodd" d="M19.1315 15.3496H46.8677C49.36 15.3496 51.3966 15.3495 53.0045 15.5657C54.6852 15.7917 56.1423 16.2807 57.3054 17.4438C58.4686 18.6069 58.9576 20.0641 59.1835 21.7448C59.3997 23.3527 59.3997 25.3893 59.3996 27.8815V47.3677C59.3997 49.86 59.3997 51.8966 59.1835 53.5045C58.9576 55.1852 58.4686 56.6423 57.3054 57.8054C56.1423 58.9686 54.6852 59.4576 53.0045 59.6835C51.3966 59.8997 49.36 59.8997 46.8677 59.8996H19.1315C16.6393 59.8997 14.6027 59.8997 12.9948 59.6835C11.3141 59.4576 9.85692 58.9686 8.6938 57.8054C7.53067 56.6423 7.04165 55.1852 6.81569 53.5045C6.59951 51.8966 6.59956 49.86 6.59961 47.3677V27.8815C6.59956 25.3893 6.59951 23.3527 6.81569 21.7448C7.04165 20.0641 7.53067 18.6069 8.6938 17.4438C9.85692 16.2807 11.3141 15.7917 12.9948 15.5657C14.6027 15.3495 16.6393 15.3496 19.1315 15.3496ZM13.4345 18.8363C12.1197 19.013 11.475 19.3295 11.0273 19.7773C10.5795 20.225 10.263 20.8697 10.0863 22.1845C9.90312 23.5467 9.89961 25.3602 9.89961 27.9996V47.2496C9.89961 49.889 9.90312 51.7025 10.0863 53.0648C10.263 54.3795 10.5795 55.0242 11.0273 55.472C11.475 55.9198 12.1197 56.2362 13.4345 56.413C14.7967 56.5961 16.6102 56.5996 19.2496 56.5996H46.7496C49.389 56.5996 51.2025 56.5961 52.5647 56.413C53.8795 56.2362 54.5242 55.9198 54.972 55.472C55.4198 55.0242 55.7362 54.3795 55.913 53.0648C56.0961 51.7025 56.0996 49.889 56.0996 47.2496V27.9996C56.0996 25.3602 56.0961 23.5467 55.913 22.1845C55.7362 20.8697 55.4198 20.225 54.972 19.7773C54.5242 19.3295 53.8795 19.013 52.5647 18.8363C51.2025 18.6531 49.389 18.6496 46.7496 18.6496H19.2496C16.6102 18.6496 14.7967 18.6531 13.4345 18.8363Z" fill="#4D55B2"/>
<path fill-rule="evenodd" clip-rule="evenodd" d="M14.8496 41.7496C14.8496 40.8383 15.5883 40.0996 16.4996 40.0996H27.4996C28.4109 40.0996 29.1496 40.8383 29.1496 41.7496C29.1496 42.6609 28.4109 43.3996 27.4996 43.3996H16.4996C15.5883 43.3996 14.8496 42.6609 14.8496 41.7496Z" fill="#4D55B2"/>
<path fill-rule="evenodd" clip-rule="evenodd" d="M36.8496 41.7496C36.8496 40.8383 37.5883 40.0996 38.4996 40.0996H49.4996C50.4109 40.0996 51.1496 40.8383 51.1496 41.7496C51.1496 42.6609 50.4109 43.3996 49.4996 43.3996H38.4996C37.5883 43.3996 36.8496 42.6609 36.8496 41.7496Z" fill="#4D55B2"/>
<path fill-rule="evenodd" clip-rule="evenodd" d="M14.8496 49.9996C14.8496 49.0883 15.5883 48.3496 16.4996 48.3496H27.4996C28.4109 48.3496 29.1496 49.0883 29.1496 49.9996C29.1496 50.9109 28.4109 51.6496 27.4996 51.6496H16.4996C15.5883 51.6496 14.8496 50.9109 14.8496 49.9996Z" fill="#4D55B2"/>
<path fill-rule="evenodd" clip-rule="evenodd" d="M36.8496 49.9996C36.8496 49.0883 37.5883 48.3496 38.4996 48.3496H49.4996C50.4109 48.3496 51.1496 49.0883 51.1496 49.9996C51.1496 50.9109 50.4109 51.6496 49.4996 51.6496H38.4996C37.5883 51.6496 36.8496 50.9109 36.8496 49.9996Z" fill="#4D55B2"/>
</svg>
