<svg width="66" height="66" viewBox="0 0 66 66" fill="none" xmlns="http://www.w3.org/2000/svg">
<path fill-rule="evenodd" clip-rule="evenodd" d="M33 30.25C37.5563 30.25 41.25 26.5563 41.25 22C41.25 17.4437 37.5563 13.75 33 13.75C28.4437 13.75 24.75 17.4437 24.75 22C24.75 26.5563 28.4437 30.25 33 30.25ZM33 33C39.0751 33 44 28.0751 44 22C44 15.9249 39.0751 11 33 11C26.9249 11 22 15.9249 22 22C22 28.0751 26.9249 33 33 33Z" fill="#4D55B2"/>
<path fill-rule="evenodd" clip-rule="evenodd" d="M12.0084 46.2449C14.0032 38.934 21.4718 35.75 28.4486 35.75H37.5511C44.5278 35.75 51.9965 38.934 53.9912 46.2449C54.3693 47.6305 54.6721 49.1332 54.8439 50.7324C55.104 53.153 53.1096 55 50.8748 55H15.1248C12.89 55 10.8956 53.153 11.1557 50.7324C11.3276 49.1332 11.6304 47.6305 12.0084 46.2449ZM28.4486 38.5C22.0588 38.5 16.1851 41.3846 14.6615 46.9688C14.318 48.2274 14.0447 49.586 13.89 51.0262C13.8256 51.6257 14.3221 52.25 15.1248 52.25H50.8748C51.6776 52.25 52.1741 51.6257 52.1097 51.0262C51.9549 49.586 51.6816 48.2274 51.3382 46.9688C49.8146 41.3846 43.9408 38.5 37.5511 38.5H28.4486Z" fill="#4D55B2"/>
</svg>
