<svg width="66" height="66" viewBox="0 0 66 66" fill="none" xmlns="http://www.w3.org/2000/svg">
<path fill-rule="evenodd" clip-rule="evenodd" d="M27.5 12.375C22.1843 12.375 17.875 16.6843 17.875 22C17.875 27.3157 22.1843 31.625 27.5 31.625C32.8157 31.625 37.125 27.3157 37.125 22C37.125 16.6843 32.8157 12.375 27.5 12.375ZM15.125 22C15.125 15.1655 20.6655 9.625 27.5 9.625C34.3345 9.625 39.875 15.1655 39.875 22C39.875 28.8345 34.3345 34.375 27.5 34.375C20.6655 34.375 15.125 28.8345 15.125 22Z" fill="#4D55B2"/>
<path fill-rule="evenodd" clip-rule="evenodd" d="M16.619 46.3188C19.7408 43.9234 23.5657 42.625 27.5006 42.625C31.4355 42.625 35.2605 43.9234 38.3822 46.3188C41.504 48.7142 43.7481 52.0728 44.7665 55.8736C44.9631 56.6071 44.5278 57.3611 43.7943 57.5576C43.0608 57.7542 42.3068 57.3189 42.1102 56.5854C41.2485 53.3693 39.3496 50.5274 36.7081 48.5005C34.0666 46.4736 30.8302 45.375 27.5006 45.375C24.1711 45.375 20.9346 46.4736 18.2931 48.5005C15.6516 50.5274 13.7527 53.3693 12.891 56.5854C12.6944 57.3189 11.9405 57.7542 11.207 57.5576C10.4734 57.3611 10.0381 56.6071 10.2347 55.8736C11.2531 52.0728 13.4972 48.7142 16.619 46.3188Z" fill="#4D55B2"/>
<path fill-rule="evenodd" clip-rule="evenodd" d="M61.875 35.75C61.875 36.5094 61.2594 37.125 60.5 37.125L44 37.125C43.2406 37.125 42.625 36.5094 42.625 35.75C42.625 34.9906 43.2406 34.375 44 34.375L60.5 34.375C61.2594 34.375 61.875 34.9906 61.875 35.75Z" fill="#4D55B2"/>
</svg>
