<svg width="66" height="66" viewBox="0 0 66 66" fill="none" xmlns="http://www.w3.org/2000/svg">
<path fill-rule="evenodd" clip-rule="evenodd" d="M0 48.8375C0 49.8247 0.800276 50.625 1.78747 50.625H30.3869C31.3741 50.625 32.1744 49.8247 32.1744 48.8375C32.1744 47.8503 31.3741 47.0501 30.3869 47.0501H1.78747C0.800276 47.0501 0 47.8503 0 48.8375Z" fill="#4D55B2"/>
<path fill-rule="evenodd" clip-rule="evenodd" d="M0 34.5377C0 35.5249 0.800276 36.3252 1.78747 36.3252H23.2371C24.2243 36.3252 25.0245 35.5249 25.0245 34.5377C25.0245 33.5505 24.2243 32.7503 23.2371 32.7503H1.78747C0.800276 32.7503 0 33.5505 0 34.5377Z" fill="#4D55B2"/>
<path fill-rule="evenodd" clip-rule="evenodd" d="M0 20.2389C0 21.2261 0.800276 22.0264 1.78747 22.0264H16.0872C17.0744 22.0264 17.8747 21.2261 17.8747 20.2389C17.8747 19.2517 17.0744 18.4514 16.0872 18.4514H1.78747C0.800276 18.4514 0 19.2517 0 20.2389Z" fill="#4D55B2"/>
<path fill-rule="evenodd" clip-rule="evenodd" d="M63.8254 22.549L51.8367 10.5602L39.848 22.549L42.3758 25.0768L50.0492 17.4034L50.0492 55.9873L53.6242 55.9873L53.6242 17.4034L61.2976 25.0768L63.8254 22.549Z" fill="#4D55B2"/>
</svg>
