<svg width="66" height="66" viewBox="0 0 66 66" fill="none" xmlns="http://www.w3.org/2000/svg">
<path fill-rule="evenodd" clip-rule="evenodd" d="M22 34.375C22 33.6156 22.6156 33 23.375 33L42.625 33C43.3844 33 44 33.6156 44 34.375C44 35.1344 43.3844 35.75 42.625 35.75L23.375 35.75C22.6156 35.75 22 35.1344 22 34.375Z" fill="#4D55B2"/>
<path fill-rule="evenodd" clip-rule="evenodd" d="M22 42.625C22 41.8656 22.6156 41.25 23.375 41.25L34.375 41.25C35.1344 41.25 35.75 41.8656 35.75 42.625C35.75 43.3844 35.1344 44 34.375 44L23.375 44C22.6156 44 22 43.3844 22 42.625Z" fill="#4D55B2"/>
<path fill-rule="evenodd" clip-rule="evenodd" d="M36.0579 11.0761C35.7782 11.0089 35.4651 11.0001 34.3907 11.0001H21.7245C20.5467 11.0001 19.7461 11.0012 19.1272 11.0517C18.5244 11.101 18.2161 11.1902 18.001 11.2998C17.4836 11.5635 17.0629 11.9842 16.7992 12.5016C16.6897 12.7167 16.6004 13.0249 16.5511 13.6278C16.5006 14.2466 16.4995 15.0473 16.4995 16.2251V49.7751C16.4995 50.9529 16.5006 51.7535 16.5511 52.3724C16.6004 52.9752 16.6897 53.2835 16.7992 53.4986C17.0629 54.016 17.4836 54.4367 18.001 54.7004C18.2161 54.8099 18.5244 54.8992 19.1272 54.9485C19.7461 54.999 20.5467 55.0001 21.7245 55.0001H44.2745C45.4523 55.0001 46.253 54.999 46.8718 54.9485C47.4747 54.8992 47.7829 54.8099 47.998 54.7004C48.5154 54.4367 48.9361 54.016 49.1998 53.4986C49.3094 53.2835 49.3986 52.9752 49.4479 52.3724C49.4984 51.7535 49.4995 50.9529 49.4995 49.7751V26.1089C49.4995 25.0345 49.4907 24.7214 49.4235 24.4417C49.3562 24.1611 49.2451 23.8929 49.0943 23.6468C48.944 23.4016 48.7288 23.174 47.9691 22.4143L38.0853 12.5305C37.3256 11.7708 37.098 11.5556 36.8528 11.4053C36.6067 11.2545 36.3385 11.1434 36.0579 11.0761ZM34.5308 8.25004C35.4039 8.24963 36.0636 8.24931 36.6998 8.40205C37.261 8.53678 37.7975 8.75901 38.2896 9.06057C38.8475 9.40243 39.3138 9.86914 39.9309 10.4868C39.9634 10.5194 39.9964 10.5525 40.0299 10.5859L49.9137 20.4697C49.9471 20.5032 49.9802 20.5362 50.0128 20.5687C50.6305 21.1858 51.0972 21.6521 51.439 22.21C51.7406 22.7021 51.9628 23.2386 52.0975 23.7998C52.2503 24.436 52.25 25.0957 52.2496 25.9688C52.2495 26.0149 52.2495 26.0616 52.2495 26.1089V49.8319C52.2495 50.9387 52.2495 51.8522 52.1887 52.5963C52.1256 53.3692 51.9901 54.0797 51.65 54.747C51.1227 55.7819 50.2814 56.6233 49.2465 57.1506C48.5791 57.4907 47.8687 57.6262 47.0958 57.6893C46.3516 57.7501 45.4382 57.7501 44.3313 57.7501H21.6677C20.5609 57.7501 19.6474 57.7501 18.9033 57.6893C18.1304 57.6262 17.4199 57.4907 16.7526 57.1506C15.7177 56.6233 14.8763 55.7819 14.349 54.747C14.009 54.0797 13.8734 53.3692 13.8103 52.5963C13.7495 51.8522 13.7495 50.9387 13.7495 49.8319V16.1683C13.7495 15.0615 13.7495 14.148 13.8103 13.4038C13.8734 12.6309 14.009 11.9205 14.349 11.2531C14.8763 10.2182 15.7177 9.37685 16.7526 8.84955C17.4199 8.50953 18.1304 8.374 18.9033 8.31085C19.6474 8.25005 20.5609 8.25007 21.6677 8.25009L34.3907 8.25009C34.438 8.25009 34.4847 8.25006 34.5308 8.25004Z" fill="#4D55B2"/>
<path fill-rule="evenodd" clip-rule="evenodd" d="M33 9.625H35.75V19.525C35.75 20.7028 35.7511 21.5035 35.8016 22.1223C35.8509 22.7251 35.9402 23.0334 36.0497 23.2485C36.3134 23.7659 36.7341 24.1866 37.2515 24.4503C37.4666 24.5598 37.7749 24.6491 38.3777 24.6984C38.9966 24.7489 39.7972 24.75 40.975 24.75H50.875V27.5H40.9182C39.8114 27.5 38.8979 27.5 38.1537 27.4392C37.3809 27.3761 36.6704 27.2406 36.0031 26.9005C34.9682 26.3732 34.1268 25.5318 33.5995 24.4969C33.2594 23.8296 33.1239 23.1191 33.0608 22.3463C33 21.6021 33 20.6886 33 19.5818L33 9.625Z" fill="#4D55B2"/>
</svg>
