<svg width="66" height="66" viewBox="0 0 66 66" fill="none" xmlns="http://www.w3.org/2000/svg">
<path fill-rule="evenodd" clip-rule="evenodd" d="M17.5567 9.91895H48.66C50.6102 9.91893 52.1831 9.91891 53.4568 10.023C54.7683 10.1301 55.9202 10.3565 56.986 10.8995C58.6789 11.7621 60.0552 13.1385 60.9178 14.8313C61.4608 15.8971 61.6872 17.049 61.7943 18.3605C61.8984 19.6342 61.8984 21.2071 61.8984 23.1573V50.6619C61.8984 52.612 61.8984 54.1849 61.7943 55.4587C61.6872 56.7701 61.4608 57.9221 60.9178 58.9878C60.0552 60.6807 58.6789 62.0571 56.986 62.9196C55.9202 63.4626 54.7683 63.689 53.4568 63.7962C52.1831 63.9002 50.6102 63.9002 48.6601 63.9002H17.5567C15.6066 63.9002 14.0336 63.9002 12.7599 63.7962C11.4484 63.689 10.2965 63.4626 9.23074 62.9196C7.53787 62.0571 6.16152 60.6807 5.29896 58.9878C4.75593 57.9221 4.52955 56.7701 4.4224 55.4587C4.31833 54.1849 4.31834 52.612 4.31836 50.6619V23.1573C4.31834 21.2072 4.31833 19.6342 4.4224 18.3605C4.52955 17.049 4.75593 15.8971 5.29896 14.8313C6.16152 13.1385 7.53787 11.7621 9.23074 10.8995C10.2965 10.3565 11.4484 10.1301 12.7599 10.023C14.0336 9.91891 15.6066 9.91893 17.5567 9.91895ZM13.053 13.6098C11.964 13.6988 11.3384 13.8646 10.8645 14.1061C9.84882 14.6236 9.02301 15.4494 8.50547 16.4651C8.26402 16.939 8.09816 17.5646 8.0092 18.6535C7.91851 19.7635 7.91711 21.1891 7.91711 23.2343V24.314H58.2996V23.2343C58.2996 21.1891 58.2982 19.7635 58.2075 18.6535C58.1186 17.5646 57.9527 16.939 57.7113 16.4651C57.1937 15.4494 56.3679 14.6236 55.3522 14.1061C54.8783 13.8646 54.2527 13.6988 53.1638 13.6098C52.0538 13.5191 50.6282 13.5177 48.583 13.5177H17.6337C15.5886 13.5177 14.1629 13.5191 13.053 13.6098ZM58.2996 27.9127H7.91711V50.5848C7.91711 52.63 7.91851 54.0557 8.0092 55.1656C8.09816 56.2545 8.26402 56.8802 8.50547 57.354C9.02301 58.3698 9.84882 59.1956 10.8645 59.7131C11.3384 59.9546 11.964 60.1204 13.053 60.2094C14.1629 60.3001 15.5886 60.3015 17.6337 60.3015H48.583C50.6282 60.3015 52.0538 60.3001 53.1638 60.2094C54.2527 60.1204 54.8783 59.9546 55.3522 59.7131C56.3679 59.1956 57.1937 58.3698 57.7113 57.354C57.9527 56.8802 58.1186 56.2545 58.2075 55.1656C58.2982 54.0557 58.2996 52.63 58.2996 50.5848V27.9127Z" fill="#4D55B2"/>
<path fill-rule="evenodd" clip-rule="evenodd" d="M20.5132 2.72168C21.507 2.72168 22.3126 3.52729 22.3126 4.52106L22.3126 18.9161C22.3126 19.9098 21.507 20.7154 20.5132 20.7154C19.5195 20.7154 18.7139 19.9098 18.7139 18.9161L18.7139 4.52106C18.7139 3.52729 19.5195 2.72168 20.5132 2.72168ZM45.7045 2.72168C46.6983 2.72168 47.5039 3.52729 47.5039 4.52106L47.5039 18.9161C47.5039 19.9098 46.6983 20.7154 45.7045 20.7154C44.7107 20.7154 43.9051 19.9098 43.9051 18.9161L43.9051 4.52106C43.9051 3.52729 44.7107 2.72168 45.7045 2.72168Z" fill="#4D55B2"/>
<path fill-rule="evenodd" clip-rule="evenodd" d="M34.9078 35.1102L34.9078 53.1039C34.9078 54.0977 34.1022 54.9033 33.1085 54.9033C32.1147 54.9033 31.3091 54.0977 31.3091 53.1039L31.3091 35.1102C31.3091 34.1164 32.1147 33.3108 33.1085 33.3108C34.1022 33.3108 34.9078 34.1164 34.9078 35.1102Z" fill="#4D55B2"/>
<path fill-rule="evenodd" clip-rule="evenodd" d="M24.1117 45.9064L42.1054 45.9064C43.0992 45.9064 43.9048 45.1008 43.9048 44.107C43.9048 43.1132 43.0992 42.3076 42.1054 42.3076L24.1117 42.3076C23.1179 42.3076 22.3123 43.1132 22.3123 44.107C22.3123 45.1008 23.1179 45.9064 24.1117 45.9064Z" fill="#4D55B2"/>
</svg>
