<svg width="66" height="66" viewBox="0 0 66 66" fill="none" xmlns="http://www.w3.org/2000/svg">
<path fill-rule="evenodd" clip-rule="evenodd" d="M30.1456 6.875L33 6.875C33.7594 6.875 34.375 7.49061 34.375 8.25C34.375 9.00939 33.7594 9.625 33 9.625H30.25C26.322 9.625 23.5144 9.62792 21.3807 9.91479C19.2866 10.1963 18.0488 10.7285 17.1386 11.6386C16.2285 12.5488 15.6963 13.7866 15.4148 15.8807C15.1279 18.0144 15.125 20.822 15.125 24.75V41.25C15.125 45.178 15.1279 47.9856 15.4148 50.1193C15.6963 52.2134 16.2285 53.4512 17.1386 54.3614C18.0488 55.2715 19.2866 55.8037 21.3807 56.0852C23.5144 56.3721 26.322 56.375 30.25 56.375H35.75C39.678 56.375 42.4856 56.3721 44.6193 56.0852C46.7134 55.8037 47.9512 55.2715 48.8614 54.3614C49.7715 53.4512 50.3037 52.2134 50.5852 50.1193C50.8721 47.9856 50.875 45.178 50.875 41.25V35.75C50.875 34.9906 51.4906 34.375 52.25 34.375C53.0094 34.375 53.625 34.9906 53.625 35.75V41.3544C53.625 45.1549 53.625 48.1476 53.3107 50.4857C52.9881 52.8848 52.3121 54.7997 50.8059 56.3059C49.2997 57.8121 47.3848 58.4881 44.9857 58.8107C42.6476 59.125 39.655 59.125 35.8545 59.125H30.1455C26.345 59.125 23.3524 59.125 21.0143 58.8107C18.6152 58.4881 16.7003 57.8121 15.1941 56.3059C13.6879 54.7997 13.0119 52.8848 12.6893 50.4857C12.375 48.1476 12.375 45.155 12.375 41.3544V24.6456C12.375 20.845 12.375 17.8524 12.6893 15.5143C13.0119 13.1152 13.6879 11.2003 15.1941 9.6941C16.7003 8.18786 18.6152 7.51185 21.0143 7.18931C23.3524 6.87495 26.345 6.87497 30.1456 6.875Z" fill="#4D55B2"/>
<path fill-rule="evenodd" clip-rule="evenodd" d="M49.5 6.875C50.2594 6.875 50.875 7.49061 50.875 8.25L50.875 24.75C50.875 25.5094 50.2594 26.125 49.5 26.125C48.7406 26.125 48.125 25.5094 48.125 24.75L48.125 8.25C48.125 7.49061 48.7406 6.875 49.5 6.875Z" fill="#4D55B2"/>
<path fill-rule="evenodd" clip-rule="evenodd" d="M59.125 16.5C59.125 17.2594 58.5094 17.875 57.75 17.875L41.25 17.875C40.4906 17.875 39.875 17.2594 39.875 16.5C39.875 15.7406 40.4906 15.125 41.25 15.125L57.75 15.125C58.5094 15.125 59.125 15.7406 59.125 16.5Z" fill="#4D55B2"/>
<path fill-rule="evenodd" clip-rule="evenodd" d="M23.375 35.75C23.375 34.9906 23.9906 34.375 24.75 34.375L41.25 34.375C42.0094 34.375 42.625 34.9906 42.625 35.75C42.625 36.5094 42.0094 37.125 41.25 37.125L24.75 37.125C23.9906 37.125 23.375 36.5094 23.375 35.75Z" fill="#4D55B2"/>
<path fill-rule="evenodd" clip-rule="evenodd" d="M23.375 24.75C23.375 23.9906 23.9906 23.375 24.75 23.375L35.75 23.375C36.5094 23.375 37.125 23.9906 37.125 24.75C37.125 25.5094 36.5094 26.125 35.75 26.125L24.75 26.125C23.9906 26.125 23.375 25.5094 23.375 24.75Z" fill="#4D55B2"/>
<path fill-rule="evenodd" clip-rule="evenodd" d="M23.375 46.75C23.375 45.9906 23.9906 45.375 24.75 45.375L35.75 45.375C36.5094 45.375 37.125 45.9906 37.125 46.75C37.125 47.5094 36.5094 48.125 35.75 48.125L24.75 48.125C23.9906 48.125 23.375 47.5094 23.375 46.75Z" fill="#4D55B2"/>
</svg>
