<svg width="66" height="67" viewBox="0 0 66 67" fill="none" xmlns="http://www.w3.org/2000/svg">
<path fill-rule="evenodd" clip-rule="evenodd" d="M15.5277 21.5277C14.9908 22.0647 14.9908 22.9353 15.5277 23.4723L30.0832 38.0277C31.6941 39.6386 34.3059 39.6386 35.9168 38.0277L40.2777 33.6668C40.8147 33.1298 41.6853 33.1298 42.2223 33.6668L54.0277 45.4723C54.5647 46.0092 55.4353 46.0092 55.9723 45.4723C56.5092 44.9353 56.5092 44.0647 55.9723 43.5277L44.1668 31.7223C42.5559 30.1114 39.9441 30.1114 38.3332 31.7223L33.9723 36.0832C33.4353 36.6202 32.5647 36.6202 32.0277 36.0832L17.4723 21.5277C16.9353 20.9908 16.0647 20.9908 15.5277 21.5277Z" fill="#4D55B2"/>
<path fill-rule="evenodd" clip-rule="evenodd" d="M8.25 7.375C9.00939 7.375 9.625 7.99061 9.625 8.75V49.45C9.625 51.0128 9.62607 52.1023 9.69537 52.9504C9.76335 53.7825 9.89009 54.2606 10.0746 54.6227C10.4701 55.3989 11.1011 56.0299 11.8773 56.4254C12.2394 56.6099 12.7175 56.7366 13.5496 56.8046C14.3977 56.8739 15.4872 56.875 17.05 56.875H57.75C58.5094 56.875 59.125 57.4906 59.125 58.25C59.125 59.0094 58.5094 59.625 57.75 59.625H16.9911C15.5009 59.625 14.299 59.625 13.3256 59.5455C12.3235 59.4636 11.4432 59.2906 10.6288 58.8757C9.3352 58.2165 8.28346 57.1648 7.62433 55.8712C7.20937 55.0568 7.03638 54.1765 6.9545 53.1744C6.87498 52.201 6.87499 50.9991 6.875 49.5089L6.875 8.75C6.875 7.99061 7.49061 7.375 8.25 7.375Z" fill="#4D55B2"/>
</svg>
