<svg width="66" height="66" viewBox="0 0 66 66" fill="none" xmlns="http://www.w3.org/2000/svg">
<path fill-rule="evenodd" clip-rule="evenodd" d="M58.7223 15.5277C59.2592 16.0647 59.2592 16.9353 58.7223 17.4723L44.1668 32.0277C42.5559 33.6386 39.9441 33.6386 38.3332 32.0277L33.9723 27.6668C33.4353 27.1298 32.5647 27.1298 32.0277 27.6668L20.2223 39.4723C19.6853 40.0092 18.8147 40.0092 18.2777 39.4723C17.7408 38.9353 17.7408 38.0647 18.2777 37.5277L30.0832 25.7223C31.6941 24.1114 34.3059 24.1114 35.9168 25.7223L40.2777 30.0832C40.8147 30.6202 41.6853 30.6202 42.2223 30.0832L56.7777 15.5277C57.3147 14.9908 58.1853 14.9908 58.7223 15.5277Z" fill="#4D55B2"/>
<path fill-rule="evenodd" clip-rule="evenodd" d="M8.25 6.875C9.00939 6.875 9.625 7.49061 9.625 8.25V48.95C9.625 50.5128 9.62607 51.6023 9.69537 52.4504C9.76335 53.2825 9.89009 53.7606 10.0746 54.1227C10.4701 54.8989 11.1011 55.5299 11.8773 55.9254C12.2394 56.1099 12.7175 56.2366 13.5496 56.3046C14.3977 56.3739 15.4872 56.375 17.05 56.375H57.75C58.5094 56.375 59.125 56.9906 59.125 57.75C59.125 58.5094 58.5094 59.125 57.75 59.125H16.9911C15.5009 59.125 14.299 59.125 13.3256 59.0455C12.3235 58.9636 11.4432 58.7906 10.6288 58.3757C9.3352 57.7165 8.28346 56.6648 7.62433 55.3712C7.20937 54.5568 7.03638 53.6765 6.9545 52.6744C6.87498 51.701 6.87499 50.4991 6.875 49.0089L6.875 8.25C6.875 7.49061 7.49061 6.875 8.25 6.875Z" fill="#4D55B2"/>
</svg>
