<svg width="66" height="66" viewBox="0 0 66 66" fill="none" xmlns="http://www.w3.org/2000/svg">
<path fill-rule="evenodd" clip-rule="evenodd" d="M33 7.05263C18.6697 7.05263 7.05263 18.6697 7.05263 33C7.05263 47.3303 18.6697 58.9474 33 58.9474C47.3303 58.9474 58.9474 47.3303 58.9474 33C58.9474 18.6697 47.3303 7.05263 33 7.05263ZM4 33C4 16.9837 16.9837 4 33 4C49.0163 4 62 16.9837 62 33C62 49.0163 49.0163 62 33 62C16.9837 62 4 49.0163 4 33Z" fill="#4D55B2"/>
<path fill-rule="evenodd" clip-rule="evenodd" d="M29 36C29 34.8954 29.694 34 30.55 34H58.45C59.306 34 60 34.8954 60 36C60 37.1046 59.306 38 58.45 38H30.55C29.694 38 29 37.1046 29 36Z" fill="#4D55B2"/>
<path fill-rule="evenodd" clip-rule="evenodd" d="M30.5714 7C31.4393 7 32.1429 7.68556 32.1429 8.53125V35.4595L50.5397 53.386C51.1534 53.984 51.1534 54.9535 50.5397 55.5515C49.9261 56.1495 48.9311 56.1495 48.3174 55.5515L29.5983 37.3111C29.2152 36.9377 29 36.4314 29 35.9035V8.53125C29 7.68556 29.7036 7 30.5714 7Z" fill="#4D55B2"/>
</svg>
