<svg width="66" height="66" viewBox="0 0 66 66" fill="none" xmlns="http://www.w3.org/2000/svg">
<path fill-rule="evenodd" clip-rule="evenodd" d="M27.5 12.375C22.1843 12.375 17.875 16.6843 17.875 22C17.875 27.3157 22.1843 31.625 27.5 31.625C32.8157 31.625 37.125 27.3157 37.125 22C37.125 16.6843 32.8157 12.375 27.5 12.375ZM15.125 22C15.125 15.1655 20.6655 9.625 27.5 9.625C34.3345 9.625 39.875 15.1655 39.875 22C39.875 28.8345 34.3345 34.375 27.5 34.375C20.6655 34.375 15.125 28.8345 15.125 22Z" fill="#4D55B2"/>
<path fill-rule="evenodd" clip-rule="evenodd" d="M16.6185 46.3188C19.7403 43.9234 23.5652 42.625 27.5001 42.625C31.435 42.625 35.26 43.9234 38.3817 46.3188C41.5035 48.7142 43.7476 52.0728 44.7661 55.8736C44.9626 56.6071 44.5273 57.3611 43.7938 57.5576C43.0603 57.7542 42.3063 57.3189 42.1098 56.5854C41.248 53.3693 39.3491 50.5274 36.7076 48.5005C34.0662 46.4736 30.8297 45.375 27.5001 45.375C24.1706 45.375 20.9341 46.4736 18.2926 48.5005C15.6511 50.5274 13.7522 53.3693 12.8905 56.5854C12.694 57.3189 11.94 57.7542 11.2065 57.5576C10.473 57.3611 10.0377 56.6071 10.2342 55.8736C11.2526 52.0728 13.4968 48.7142 16.6185 46.3188Z" fill="#4D55B2"/>
<path fill-rule="evenodd" clip-rule="evenodd" d="M52.25 26.125C53.0094 26.125 53.625 26.7406 53.625 27.5L53.625 44C53.625 44.7594 53.0094 45.375 52.25 45.375C51.4906 45.375 50.875 44.7594 50.875 44L50.875 27.5C50.875 26.7406 51.4906 26.125 52.25 26.125Z" fill="#4D55B2"/>
<path fill-rule="evenodd" clip-rule="evenodd" d="M61.875 35.75C61.875 36.5094 61.2594 37.125 60.5 37.125L44 37.125C43.2406 37.125 42.625 36.5094 42.625 35.75C42.625 34.9906 43.2406 34.375 44 34.375L60.5 34.375C61.2594 34.375 61.875 34.9906 61.875 35.75Z" fill="#4D55B2"/>
</svg>
