<svg width="66" height="67" viewBox="0 0 66 67" fill="none" xmlns="http://www.w3.org/2000/svg">
<path fill-rule="evenodd" clip-rule="evenodd" d="M57.75 33.5C57.75 47.169 46.669 58.25 33 58.25C19.331 58.25 8.25 47.169 8.25 33.5C8.25 19.831 19.331 8.75 33 8.75C46.669 8.75 57.75 19.831 57.75 33.5ZM33 55.5C45.1503 55.5 55 45.6503 55 33.5C55 21.3497 45.1503 11.5 33 11.5C20.8497 11.5 11 21.3497 11 33.5C11 45.6503 20.8497 55.5 33 55.5Z" fill="#4D55B2"/>
<path fill-rule="evenodd" clip-rule="evenodd" d="M33 22.5C33.7594 22.5 34.375 23.1156 34.375 23.875V32.125H45.375C46.1344 32.125 46.75 32.7406 46.75 33.5C46.75 34.2594 46.1344 34.875 45.375 34.875H33.6875C32.5484 34.875 31.625 33.9516 31.625 32.8125V23.875C31.625 23.1156 32.2406 22.5 33 22.5Z" fill="#4D55B2"/>
</svg>
