<svg width="66" height="66" viewBox="0 0 66 66" fill="none" xmlns="http://www.w3.org/2000/svg">
<path fill-rule="evenodd" clip-rule="evenodd" d="M47.5126 23.6061C48.1444 24.0273 48.3152 24.881 47.8939 25.5129L39.5225 38.07C37.7656 40.7053 33.8172 40.4595 32.4008 37.6266L31.1393 35.1035C30.6671 34.1592 29.351 34.0773 28.7653 34.9557L20.3939 47.5129C19.9727 48.1447 19.119 48.3155 18.4871 47.8942C17.8553 47.473 17.6846 46.6193 18.1058 45.9874L26.4772 33.4303C28.2341 30.795 32.1825 31.0408 33.5989 33.8737L34.8605 36.3968C35.3326 37.3411 36.6487 37.423 37.2344 36.5446L45.6058 23.9874C46.027 23.3556 46.8807 23.1848 47.5126 23.6061Z" fill="#4D55B2"/>
<path fill-rule="evenodd" clip-rule="evenodd" d="M19.1494 6.875H46.8506C49.3579 6.87496 51.3788 6.87493 52.9682 7.08863C54.6184 7.31049 56.0078 7.78513 57.1114 8.88864C58.2149 9.99216 58.6895 11.3816 58.9114 13.0318C59.1251 14.6212 59.125 16.6421 59.125 19.1494V46.8507C59.125 49.3579 59.1251 51.3788 58.9114 52.9682C58.6895 54.6184 58.2149 56.0078 57.1114 57.1114C56.0078 58.2149 54.6184 58.6895 52.9682 58.9114C51.3788 59.1251 49.3579 59.125 46.8507 59.125H19.1494C16.6421 59.125 14.6212 59.1251 13.0318 58.9114C11.3816 58.6895 9.99216 58.2149 8.88864 57.1114C7.78513 56.0078 7.31049 54.6184 7.08863 52.9682C6.87493 51.3788 6.87496 49.3579 6.875 46.8506V19.1494C6.87496 16.6422 6.87493 14.6212 7.08863 13.0318C7.31049 11.3816 7.78513 9.99216 8.88864 8.88864C9.99216 7.78513 11.3816 7.31049 13.0318 7.08863C14.6212 6.87493 16.6422 6.87496 19.1494 6.875ZM13.3982 9.8141C12.053 9.99497 11.3406 10.3258 10.8332 10.8332C10.3258 11.3406 9.99497 12.053 9.8141 13.3982C9.62792 14.783 9.625 16.6184 9.625 19.25V46.75C9.625 49.3816 9.62792 51.217 9.8141 52.6018C9.99497 53.947 10.3258 54.6594 10.8332 55.1668C11.3406 55.6742 12.053 56.005 13.3982 56.1859C14.783 56.3721 16.6184 56.375 19.25 56.375H46.75C49.3816 56.375 51.217 56.3721 52.6018 56.1859C53.947 56.005 54.6594 55.6742 55.1668 55.1668C55.6742 54.6594 56.005 53.947 56.1859 52.6018C56.3721 51.217 56.375 49.3816 56.375 46.75V19.25C56.375 16.6184 56.3721 14.783 56.1859 13.3982C56.005 12.053 55.6742 11.3406 55.1668 10.8332C54.6594 10.3258 53.947 9.99497 52.6018 9.8141C51.217 9.62792 49.3816 9.625 46.75 9.625H19.25C16.6184 9.625 14.783 9.62792 13.3982 9.8141Z" fill="#4D55B2"/>
</svg>
