<svg width="66" height="66" viewBox="0 0 66 66" fill="none" xmlns="http://www.w3.org/2000/svg">
<path d="M33 17.22C33 16.9686 33 16.8429 33.0513 16.7449C33.0953 16.6607 33.1702 16.5885 33.2559 16.5475C33.3557 16.4998 33.4771 16.5043 33.7198 16.5131C36.9458 16.6304 40.0981 17.535 42.9 19.1527C45.9099 20.8905 48.4094 23.39 50.1473 26.4C51.8851 29.41 52.7999 32.8244 52.7999 36.3C52.7999 39.7756 51.8851 43.19 50.1473 46.2C48.4094 49.21 45.9099 51.7095 42.8999 53.4473C39.89 55.1851 36.4756 56.1 32.9999 56.1C29.5243 56.1 26.1099 55.1851 23.0999 53.4473C20.2981 51.8296 17.9385 49.5519 16.2239 46.8169C16.0949 46.6111 16.0304 46.5082 16.0218 46.3979C16.0144 46.3032 16.0395 46.2022 16.0904 46.122C16.1496 46.0285 16.2585 45.9657 16.4762 45.84L32.6399 36.5078C32.7711 36.4321 32.8367 36.3943 32.8844 36.3413C32.9266 36.2944 32.9584 36.2392 32.9779 36.1792C33 36.1115 33 36.0357 33 35.8843V17.22Z" fill="#4D55B2"/>
<path fill-rule="evenodd" clip-rule="evenodd" d="M63.3601 36.2996C63.3601 52.7025 49.9152 65.9996 33.33 65.9996C16.7449 65.9996 3.30005 52.7025 3.30005 36.2996C3.30005 19.8968 16.7449 6.59961 33.33 6.59961C49.9152 6.59961 63.3601 19.8968 63.3601 36.2996ZM33.33 62.6996C48.0724 62.6996 60.0234 50.8799 60.0234 36.2996C60.0234 21.7193 48.0724 9.89961 33.33 9.89961C18.5877 9.89961 6.63672 21.7193 6.63672 36.2996C6.63672 50.8799 18.5877 62.6996 33.33 62.6996Z" fill="#4D55B2"/>
</svg>
