<svg width="66" height="66" viewBox="0 0 66 66" fill="none" xmlns="http://www.w3.org/2000/svg">
<path fill-rule="evenodd" clip-rule="evenodd" d="M30.52 8.86307C32.1449 8.42976 33.8551 8.42976 35.48 8.86307L51.9379 13.2518C53.7436 13.7334 55 15.3687 55 17.2376V33.7943C55 39.7708 52.0131 45.352 47.0403 48.6672L35.2881 56.5019C33.9026 57.4256 32.0974 57.4256 30.7119 56.5019L18.9597 48.6672C13.9869 45.352 11 39.7708 11 33.7943V17.2376C11 15.3687 12.2564 13.7334 14.0621 13.2518L30.52 8.86307ZM34.7714 11.5202C33.6108 11.2107 32.3892 11.2107 31.2286 11.5202L14.7707 15.909C14.1688 16.0695 13.75 16.6146 13.75 17.2376V33.7943C13.75 38.8514 16.2774 43.5739 20.4852 46.379L32.2373 54.2138C32.6992 54.5217 33.3008 54.5217 33.7627 54.2138L45.5148 46.379C49.7226 43.5738 52.25 38.8514 52.25 33.7943V17.2376C52.25 16.6146 51.8312 16.0695 51.2293 15.909L34.7714 11.5202Z" fill="#4D55B2"/>
<path fill-rule="evenodd" clip-rule="evenodd" d="M42.2223 26.5277C42.7592 27.0647 42.7592 27.9353 42.2223 28.4723L33.0834 37.6111C32.278 38.4166 30.972 38.4166 30.1666 37.6111L25.1527 32.5973C24.6158 32.0603 24.6158 31.1897 25.1527 30.6527C25.6897 30.1158 26.5603 30.1158 27.0973 30.6527L31.625 35.1805L40.2777 26.5277C40.8147 25.9908 41.6853 25.9908 42.2223 26.5277Z" fill="#4D55B2"/>
</svg>
