<svg width="32" height="32" viewBox="0 0 32 32" fill="none" xmlns="http://www.w3.org/2000/svg">
<rect width="32" height="32" rx="8" fill="#232651"/>
<path fill-rule="evenodd" clip-rule="evenodd" d="M14.7447 8.20393C13.0436 12.1627 16.8546 12.1627 17.9688 17.7166C18.349 19.6114 18.0286 20.0924 18.526 21.3267C18.9736 22.4375 19.6742 22.7752 19.6742 22.7752C19.6742 22.7752 17.8757 23.4686 17.6903 24.5886C17.4844 25.8322 17.7834 26.3253 18.526 26.603C19.2226 26.7539 19.6802 26.3088 19.7064 25.9119C19.7335 25.515 19.5165 25.233 19.2226 25.3916C18.9286 25.5502 18.8045 26.0476 18.8045 26.0476C18.526 24.9368 19.7064 24.4643 18.8045 24.5886C18.526 24.6591 20.5278 22.5908 22.9925 24.5886C24.1675 25.541 24.7292 25.5678 25.2358 25.5938C25.49 25.6069 23.5665 25.5843 21.5901 26.3253C19.6137 27.0662 19.8117 28.1049 14.9046 27.9914C6.71916 27.331 2.32034 18.9883 4.59793 12.1627C5.96014 8.08037 9.14362 6.01071 11.0048 5.22026C16.576 2.44329 22.7587 4.63263 26.0727 9.49617C27.1156 11.0267 27.7184 12.9958 28 15.224C28 15.224 27.555 12.8871 26.8828 11.885C26.4898 11.2993 26.4048 11.4715 26.4048 11.4715L26.4379 12.8871C25.2114 9.38572 24.1222 8.35328 21.5901 6.60875L22.9146 9.00193C20.1664 5.70419 17.0583 5.0589 13.0436 6.26975L15.9349 7.2574C12.3976 6.99391 7.04783 9.0267 6.2693 13.2735C6.90043 12.5376 9.54915 11.2692 10.4844 11.3724C7.49059 13.3024 5.43202 18.9816 7.64477 21.0374L8.26149 18.9883C8.44956 22.4757 10.7945 25.5645 14.5787 25.3916C13.7904 24.3814 13.4892 23.5483 13.4062 22.0729C13.4062 22.0729 14.9997 23.6605 15.081 23.7041C15.1623 23.7478 14.1908 22.6185 13.7904 21.3267C13.455 20.2442 13.4892 18.6988 13.4892 18.6988C13.4892 18.6988 14.8574 20.6581 15.0251 20.7999C15.0963 20.8604 13.8247 18.0099 14.1314 15.4078C14.4025 16.2007 15.3165 18.3296 16.1696 18.5603C15.0251 15.224 12.6762 11.0519 14.7422 8.20225L14.7447 8.20393Z" fill="url(#paint0_linear_430_3319)"/>
<defs>
<linearGradient id="paint0_linear_430_3319" x1="6.77134" y1="4.94346" x2="21.7813" y2="26.0306" gradientUnits="userSpaceOnUse">
<stop offset="0.180497" stop-color="#ABB3FF"/>
<stop offset="0.566076" stop-color="#4650AA"/>
<stop offset="0.807024" stop-color="#B741A8"/>
<stop offset="1" stop-color="#E85193"/>
</linearGradient>
</defs>
</svg>
